<?xml version="1.0" encoding="UTF-8"?>
<svg xmlns="http://www.w3.org/2000/svg" xmlns:xlink="http://www.w3.org/1999/xlink" width="1920" height="1080" viewBox="0 0 1920 1080">
<defs>
<g>
<g id="glyph-0-0">
<path d="M 0.140625 -0.765625 L 0.140625 -1.015625 L 0.9375 -1.015625 L 0.9375 -0.765625 Z "/>
</g>
<g id="glyph-0-1">
<path d="M 1.734375 -1.1875 C 1.734375 -0.9375 1.707031 -0.71875 1.65625 -0.53125 C 1.601562 -0.351562 1.519531 -0.210938 1.40625 -0.109375 C 1.289062 -0.015625 1.140625 0.03125 0.953125 0.03125 C 0.679688 0.03125 0.476562 -0.0703125 0.34375 -0.28125 C 0.21875 -0.5 0.15625 -0.800781 0.15625 -1.1875 C 0.15625 -1.445312 0.179688 -1.664062 0.234375 -1.84375 C 0.285156 -2.03125 0.367188 -2.171875 0.484375 -2.265625 C 0.609375 -2.359375 0.765625 -2.40625 0.953125 -2.40625 C 1.210938 -2.40625 1.40625 -2.296875 1.53125 -2.078125 C 1.664062 -1.867188 1.734375 -1.570312 1.734375 -1.1875 Z M 0.453125 -1.1875 C 0.453125 -0.863281 0.488281 -0.617188 0.5625 -0.453125 C 0.632812 -0.296875 0.765625 -0.21875 0.953125 -0.21875 C 1.128906 -0.21875 1.253906 -0.296875 1.328125 -0.453125 C 1.398438 -0.617188 1.4375 -0.863281 1.4375 -1.1875 C 1.4375 -1.507812 1.398438 -1.75 1.328125 -1.90625 C 1.253906 -2.070312 1.128906 -2.15625 0.953125 -2.15625 C 0.765625 -2.15625 0.632812 -2.070312 0.5625 -1.90625 C 0.488281 -1.75 0.453125 -1.507812 0.453125 -1.1875 Z "/>
</g>
<g id="glyph-0-2">
<path d="M 0.234375 -0.1875 C 0.234375 -0.257812 0.253906 -0.3125 0.296875 -0.34375 C 0.335938 -0.382812 0.382812 -0.40625 0.4375 -0.40625 C 0.5 -0.40625 0.550781 -0.382812 0.59375 -0.34375 C 0.632812 -0.3125 0.65625 -0.257812 0.65625 -0.1875 C 0.65625 -0.101562 0.632812 -0.0390625 0.59375 0 C 0.550781 0.03125 0.5 0.046875 0.4375 0.046875 C 0.382812 0.046875 0.335938 0.03125 0.296875 0 C 0.253906 -0.0390625 0.234375 -0.101562 0.234375 -0.1875 Z "/>
</g>
<g id="glyph-0-3">
<path d="M 1.734375 0 L 0.15625 0 L 0.15625 -0.25 L 0.78125 -0.875 C 0.90625 -0.988281 1.003906 -1.09375 1.078125 -1.1875 C 1.160156 -1.28125 1.222656 -1.367188 1.265625 -1.453125 C 1.304688 -1.546875 1.328125 -1.648438 1.328125 -1.765625 C 1.328125 -1.890625 1.289062 -1.984375 1.21875 -2.046875 C 1.144531 -2.117188 1.046875 -2.15625 0.921875 -2.15625 C 0.796875 -2.15625 0.691406 -2.132812 0.609375 -2.09375 C 0.523438 -2.0625 0.4375 -2.007812 0.34375 -1.9375 L 0.1875 -2.125 C 0.28125 -2.207031 0.382812 -2.273438 0.5 -2.328125 C 0.625 -2.378906 0.765625 -2.40625 0.921875 -2.40625 C 1.140625 -2.40625 1.3125 -2.347656 1.4375 -2.234375 C 1.570312 -2.128906 1.640625 -1.976562 1.640625 -1.78125 C 1.640625 -1.65625 1.613281 -1.535156 1.5625 -1.421875 C 1.507812 -1.316406 1.4375 -1.210938 1.34375 -1.109375 C 1.25 -1.003906 1.144531 -0.890625 1.03125 -0.765625 L 0.53125 -0.28125 L 0.53125 -0.265625 L 1.734375 -0.265625 Z "/>
</g>
<g id="glyph-0-4">
</g>
<g id="glyph-0-5">
<path d="M 1.375 0 L 0.59375 -2.078125 L 0.578125 -2.078125 C 0.578125 -2.015625 0.578125 -1.921875 0.578125 -1.796875 C 0.585938 -1.679688 0.59375 -1.5625 0.59375 -1.4375 L 0.59375 0 L 0.328125 0 L 0.328125 -2.375 L 0.765625 -2.375 L 1.5 -0.421875 L 1.515625 -0.421875 L 2.25 -2.375 L 2.703125 -2.375 L 2.703125 0 L 2.40625 0 L 2.40625 -1.46875 C 2.40625 -1.582031 2.40625 -1.691406 2.40625 -1.796875 C 2.414062 -1.910156 2.421875 -2.003906 2.421875 -2.078125 L 2.40625 -2.078125 L 1.625 0 Z "/>
</g>
<g id="glyph-0-6">
<path d="M 0.953125 -1.8125 C 1.171875 -1.8125 1.332031 -1.765625 1.4375 -1.671875 C 1.539062 -1.578125 1.59375 -1.425781 1.59375 -1.21875 L 1.59375 0 L 1.390625 0 L 1.328125 -0.25 L 1.3125 -0.25 C 1.238281 -0.15625 1.15625 -0.0820312 1.0625 -0.03125 C 0.976562 0.0078125 0.863281 0.03125 0.71875 0.03125 C 0.550781 0.03125 0.414062 -0.0078125 0.3125 -0.09375 C 0.207031 -0.175781 0.15625 -0.3125 0.15625 -0.5 C 0.15625 -0.675781 0.222656 -0.8125 0.359375 -0.90625 C 0.503906 -1 0.722656 -1.050781 1.015625 -1.0625 L 1.3125 -1.078125 L 1.3125 -1.1875 C 1.3125 -1.332031 1.28125 -1.429688 1.21875 -1.484375 C 1.15625 -1.546875 1.0625 -1.578125 0.9375 -1.578125 C 0.84375 -1.578125 0.753906 -1.5625 0.671875 -1.53125 C 0.585938 -1.507812 0.507812 -1.476562 0.4375 -1.4375 L 0.34375 -1.65625 C 0.425781 -1.695312 0.519531 -1.734375 0.625 -1.765625 C 0.726562 -1.796875 0.835938 -1.8125 0.953125 -1.8125 Z M 1.046875 -0.859375 C 0.828125 -0.847656 0.671875 -0.8125 0.578125 -0.75 C 0.492188 -0.6875 0.453125 -0.601562 0.453125 -0.5 C 0.453125 -0.394531 0.484375 -0.316406 0.546875 -0.265625 C 0.609375 -0.222656 0.6875 -0.203125 0.78125 -0.203125 C 0.9375 -0.203125 1.0625 -0.242188 1.15625 -0.328125 C 1.257812 -0.410156 1.3125 -0.539062 1.3125 -0.71875 L 1.3125 -0.875 Z M 1.46875 -2.46875 C 1.457031 -2.332031 1.40625 -2.222656 1.3125 -2.140625 C 1.21875 -2.054688 1.09375 -2.015625 0.9375 -2.015625 C 0.769531 -2.015625 0.644531 -2.054688 0.5625 -2.140625 C 0.476562 -2.222656 0.4375 -2.332031 0.4375 -2.46875 L 0.609375 -2.46875 C 0.617188 -2.375 0.648438 -2.3125 0.703125 -2.28125 C 0.765625 -2.257812 0.847656 -2.25 0.953125 -2.25 C 1.035156 -2.25 1.109375 -2.257812 1.171875 -2.28125 C 1.234375 -2.3125 1.269531 -2.375 1.28125 -2.46875 Z M 0.875 0.578125 C 0.832031 0.578125 0.789062 0.5625 0.75 0.53125 C 0.71875 0.507812 0.703125 0.46875 0.703125 0.40625 C 0.703125 0.332031 0.71875 0.28125 0.75 0.25 C 0.789062 0.226562 0.832031 0.21875 0.875 0.21875 C 0.925781 0.21875 0.96875 0.226562 1 0.25 C 1.03125 0.28125 1.046875 0.332031 1.046875 0.40625 C 1.046875 0.46875 1.03125 0.507812 1 0.53125 C 0.96875 0.5625 0.925781 0.578125 0.875 0.578125 Z "/>
</g>
<g id="glyph-0-7">
<path d="M 1.140625 -1.8125 C 1.359375 -1.8125 1.519531 -1.757812 1.625 -1.65625 C 1.726562 -1.550781 1.78125 -1.382812 1.78125 -1.15625 L 1.78125 0 L 1.5 0 L 1.5 -1.140625 C 1.5 -1.429688 1.363281 -1.578125 1.09375 -1.578125 C 0.894531 -1.578125 0.757812 -1.519531 0.6875 -1.40625 C 0.613281 -1.289062 0.578125 -1.128906 0.578125 -0.921875 L 0.578125 0 L 0.28125 0 L 0.28125 -1.78125 L 0.515625 -1.78125 L 0.5625 -1.546875 L 0.578125 -1.546875 C 0.640625 -1.640625 0.71875 -1.707031 0.8125 -1.75 C 0.914062 -1.789062 1.023438 -1.8125 1.140625 -1.8125 Z "/>
</g>
<g id="glyph-0-8">
<path d="M 0.921875 -1.8125 C 1.035156 -1.8125 1.140625 -1.789062 1.234375 -1.75 C 1.328125 -1.707031 1.40625 -1.640625 1.46875 -1.546875 L 1.484375 -1.546875 L 1.53125 -1.78125 L 1.765625 -1.78125 L 1.765625 0.03125 C 1.765625 0.28125 1.695312 0.46875 1.5625 0.59375 C 1.4375 0.726562 1.238281 0.796875 0.96875 0.796875 C 0.707031 0.796875 0.492188 0.757812 0.328125 0.6875 L 0.328125 0.421875 C 0.492188 0.515625 0.710938 0.5625 0.984375 0.5625 C 1.140625 0.5625 1.257812 0.515625 1.34375 0.421875 C 1.425781 0.328125 1.46875 0.203125 1.46875 0.046875 L 1.46875 -0.015625 C 1.46875 -0.046875 1.46875 -0.0820312 1.46875 -0.125 C 1.476562 -0.175781 1.484375 -0.210938 1.484375 -0.234375 L 1.46875 -0.234375 C 1.351562 -0.0546875 1.171875 0.03125 0.921875 0.03125 C 0.691406 0.03125 0.507812 -0.046875 0.375 -0.203125 C 0.25 -0.367188 0.1875 -0.597656 0.1875 -0.890625 C 0.1875 -1.171875 0.25 -1.394531 0.375 -1.5625 C 0.507812 -1.726562 0.691406 -1.8125 0.921875 -1.8125 Z M 0.953125 -1.578125 C 0.804688 -1.578125 0.691406 -1.515625 0.609375 -1.390625 C 0.523438 -1.273438 0.484375 -1.109375 0.484375 -0.890625 C 0.484375 -0.671875 0.523438 -0.5 0.609375 -0.375 C 0.691406 -0.257812 0.8125 -0.203125 0.96875 -0.203125 C 1.144531 -0.203125 1.273438 -0.25 1.359375 -0.34375 C 1.441406 -0.445312 1.484375 -0.601562 1.484375 -0.8125 L 1.484375 -0.890625 C 1.484375 -1.128906 1.4375 -1.300781 1.34375 -1.40625 C 1.257812 -1.519531 1.128906 -1.578125 0.953125 -1.578125 Z "/>
</g>
</g>
</defs>
<g fill="rgb(98.823529%, 38.431373%, 33.333333%)" fill-opacity="1">
<use xlink:href="#glyph-0-0" x="30" y="23.5625"/>
<use xlink:href="#glyph-0-1" x="31" y="23.5625"/>
<use xlink:href="#glyph-0-2" x="33" y="23.5625"/>
<use xlink:href="#glyph-0-3" x="34" y="23.5625"/>
<use xlink:href="#glyph-0-4" x="36" y="23.5625"/>
</g>
<g fill="rgb(98.823529%, 38.431373%, 33.333333%)" fill-opacity="1">
<use xlink:href="#glyph-0-5" x="30" y="26.8125"/>
<use xlink:href="#glyph-0-6" x="33" y="26.8125"/>
<use xlink:href="#glyph-0-7" x="35" y="26.8125"/>
<use xlink:href="#glyph-0-4" x="37" y="26.8125"/>
</g>
<g fill="rgb(98.823529%, 38.431373%, 33.333333%)" fill-opacity="1">
<use xlink:href="#glyph-0-7" x="30" y="30.0625"/>
<use xlink:href="#glyph-0-6" x="32" y="30.0625"/>
<use xlink:href="#glyph-0-7" x="34" y="30.0625"/>
<use xlink:href="#glyph-0-8" x="36" y="30.0625"/>
</g>
</svg>
