<?xml version="1.0" encoding="UTF-8"?>
<svg xmlns="http://www.w3.org/2000/svg" xmlns:xlink="http://www.w3.org/1999/xlink" width="1920" height="1080" viewBox="0 0 1920 1080">
<defs>
<g>
<g id="glyph-0-0">
<path d="M 5.484375 -2.4375 C 5.484375 -1.738281 5.238281 -1.144531 4.75 -0.65625 C 4.257812 -0.175781 3.671875 0.0625 2.984375 0.0625 C 2.296875 0.0625 1.707031 -0.175781 1.21875 -0.65625 C 0.738281 -1.144531 0.5 -1.738281 0.5 -2.4375 C 0.5 -2.863281 0.609375 -3.273438 0.828125 -3.671875 C 1.054688 -4.078125 1.367188 -4.382812 1.765625 -4.59375 C 2.171875 -4.8125 2.578125 -4.921875 2.984375 -4.921875 C 3.398438 -4.921875 3.804688 -4.8125 4.203125 -4.59375 C 4.609375 -4.382812 4.921875 -4.078125 5.140625 -3.671875 C 5.367188 -3.273438 5.484375 -2.863281 5.484375 -2.4375 Z M 2 -0.875 L 4.015625 -0.875 L 4.015625 -1.34375 L 3.296875 -1.34375 L 3.296875 -3.921875 L 2.78125 -3.921875 L 1.9375 -3.78125 L 1.9375 -3.28125 L 2.703125 -3.421875 L 2.703125 -1.34375 L 2 -1.34375 Z "/>
</g>
<g id="glyph-0-1">
<path d="M 5.265625 -2.234375 L 5.265625 -1.9375 L 3.984375 -0.671875 L 3.59375 -1.0625 L 4.359375 -1.8125 L 0.375 -1.8125 L 0.375 -2.375 L 4.359375 -2.375 L 3.59375 -3.125 L 3.984375 -3.515625 Z "/>
</g>
<g id="glyph-0-2">
</g>
<g id="glyph-0-3">
<path d="M 5.484375 -2.4375 C 5.484375 -1.738281 5.238281 -1.144531 4.75 -0.65625 C 4.257812 -0.175781 3.671875 0.0625 2.984375 0.0625 C 2.296875 0.0625 1.707031 -0.175781 1.21875 -0.65625 C 0.738281 -1.144531 0.5 -1.738281 0.5 -2.4375 C 0.5 -2.863281 0.609375 -3.273438 0.828125 -3.671875 C 1.054688 -4.078125 1.367188 -4.382812 1.765625 -4.59375 C 2.171875 -4.8125 2.578125 -4.921875 2.984375 -4.921875 C 3.398438 -4.921875 3.804688 -4.8125 4.203125 -4.59375 C 4.609375 -4.382812 4.921875 -4.078125 5.140625 -3.671875 C 5.367188 -3.273438 5.484375 -2.863281 5.484375 -2.4375 Z M 3.734375 -2.328125 C 3.867188 -2.472656 3.960938 -2.601562 4.015625 -2.71875 C 4.066406 -2.832031 4.09375 -2.953125 4.09375 -3.078125 C 4.09375 -3.347656 3.984375 -3.566406 3.765625 -3.734375 C 3.554688 -3.898438 3.273438 -3.984375 2.921875 -3.984375 C 2.785156 -3.984375 2.640625 -3.960938 2.484375 -3.921875 C 2.328125 -3.890625 2.144531 -3.835938 1.9375 -3.765625 L 1.9375 -3.203125 C 2.1875 -3.328125 2.378906 -3.410156 2.515625 -3.453125 C 2.660156 -3.492188 2.796875 -3.515625 2.921875 -3.515625 C 3.097656 -3.515625 3.238281 -3.472656 3.34375 -3.390625 C 3.445312 -3.304688 3.5 -3.195312 3.5 -3.0625 C 3.5 -2.96875 3.472656 -2.875 3.421875 -2.78125 C 3.367188 -2.695312 3.273438 -2.585938 3.140625 -2.453125 C 3.066406 -2.367188 2.882812 -2.195312 2.59375 -1.9375 C 2.3125 -1.675781 2.082031 -1.460938 1.90625 -1.296875 L 1.90625 -0.875 L 4.109375 -0.875 L 4.109375 -1.34375 L 2.6875 -1.34375 C 2.957031 -1.59375 3.1875 -1.804688 3.375 -1.984375 C 3.570312 -2.171875 3.691406 -2.285156 3.734375 -2.328125 Z "/>
</g>
<g id="glyph-0-4">
<path d="M 5.484375 -2.4375 C 5.484375 -1.738281 5.238281 -1.144531 4.75 -0.65625 C 4.257812 -0.175781 3.671875 0.0625 2.984375 0.0625 C 2.296875 0.0625 1.707031 -0.175781 1.21875 -0.65625 C 0.738281 -1.144531 0.5 -1.738281 0.5 -2.4375 C 0.5 -2.863281 0.609375 -3.273438 0.828125 -3.671875 C 1.054688 -4.078125 1.367188 -4.382812 1.765625 -4.59375 C 2.171875 -4.8125 2.578125 -4.921875 2.984375 -4.921875 C 3.398438 -4.921875 3.804688 -4.8125 4.203125 -4.59375 C 4.609375 -4.382812 4.921875 -4.078125 5.140625 -3.671875 C 5.367188 -3.273438 5.484375 -2.863281 5.484375 -2.4375 Z M 4.21875 -3.15625 C 4.21875 -3.40625 4.113281 -3.601562 3.90625 -3.75 C 3.695312 -3.90625 3.414062 -3.984375 3.0625 -3.984375 C 2.9375 -3.984375 2.796875 -3.972656 2.640625 -3.953125 C 2.492188 -3.929688 2.320312 -3.894531 2.125 -3.84375 L 2.125 -3.34375 C 2.351562 -3.414062 2.53125 -3.460938 2.65625 -3.484375 C 2.789062 -3.503906 2.914062 -3.515625 3.03125 -3.515625 C 3.226562 -3.515625 3.375 -3.476562 3.46875 -3.40625 C 3.570312 -3.34375 3.625 -3.25 3.625 -3.125 C 3.625 -2.988281 3.578125 -2.890625 3.484375 -2.828125 C 3.390625 -2.765625 3.242188 -2.734375 3.046875 -2.734375 L 2.578125 -2.734375 L 2.578125 -2.28125 L 3.03125 -2.28125 C 3.25 -2.28125 3.414062 -2.234375 3.53125 -2.140625 C 3.644531 -2.054688 3.703125 -1.941406 3.703125 -1.796875 C 3.703125 -1.628906 3.640625 -1.5 3.515625 -1.40625 C 3.390625 -1.320312 3.195312 -1.28125 2.9375 -1.28125 C 2.789062 -1.28125 2.648438 -1.296875 2.515625 -1.328125 C 2.378906 -1.359375 2.210938 -1.425781 2.015625 -1.53125 L 2.015625 -0.984375 C 2.210938 -0.929688 2.382812 -0.890625 2.53125 -0.859375 C 2.675781 -0.835938 2.816406 -0.828125 2.953125 -0.828125 C 3.378906 -0.828125 3.707031 -0.910156 3.9375 -1.078125 C 4.175781 -1.242188 4.296875 -1.484375 4.296875 -1.796875 C 4.296875 -1.992188 4.226562 -2.160156 4.09375 -2.296875 C 3.96875 -2.441406 3.894531 -2.519531 3.875 -2.53125 C 3.882812 -2.53125 3.941406 -2.585938 4.046875 -2.703125 C 4.160156 -2.828125 4.21875 -2.976562 4.21875 -3.15625 Z "/>
</g>
<g id="glyph-0-5">
<path d="M 5.484375 -2.4375 C 5.484375 -1.738281 5.238281 -1.144531 4.75 -0.65625 C 4.257812 -0.175781 3.671875 0.0625 2.984375 0.0625 C 2.296875 0.0625 1.707031 -0.175781 1.21875 -0.65625 C 0.738281 -1.144531 0.5 -1.738281 0.5 -2.4375 C 0.5 -2.863281 0.609375 -3.273438 0.828125 -3.671875 C 1.054688 -4.078125 1.367188 -4.382812 1.765625 -4.59375 C 2.171875 -4.8125 2.578125 -4.921875 2.984375 -4.921875 C 3.398438 -4.921875 3.804688 -4.8125 4.203125 -4.59375 C 4.609375 -4.382812 4.921875 -4.078125 5.140625 -3.671875 C 5.367188 -3.273438 5.484375 -2.863281 5.484375 -2.4375 Z M 3.0625 -2.03125 L 2.171875 -2.03125 L 3.0625 -3.265625 Z M 1.609375 -2.03125 L 1.609375 -1.5625 L 3.0625 -1.5625 L 3.0625 -0.875 L 3.65625 -0.875 L 3.65625 -1.5625 L 4.109375 -1.5625 L 4.109375 -2.03125 L 3.65625 -2.03125 L 3.65625 -3.921875 L 2.984375 -3.921875 Z "/>
</g>
<g id="glyph-1-0">
</g>
<g id="glyph-1-1">
<path d="M 1.96875 -4.765625 C 2.550781 -4.765625 2.984375 -4.648438 3.265625 -4.421875 C 3.554688 -4.203125 3.703125 -3.863281 3.703125 -3.40625 C 3.703125 -3.15625 3.65625 -2.941406 3.5625 -2.765625 C 3.46875 -2.597656 3.347656 -2.460938 3.203125 -2.359375 C 3.054688 -2.265625 2.898438 -2.191406 2.734375 -2.140625 L 4.046875 0 L 3.34375 0 L 2.1875 -1.96875 L 1.25 -1.96875 L 1.25 0 L 0.640625 0 L 0.640625 -4.765625 Z M 1.921875 -4.25 L 1.25 -4.25 L 1.25 -2.46875 L 1.96875 -2.46875 C 2.351562 -2.46875 2.632812 -2.546875 2.8125 -2.703125 C 2.988281 -2.859375 3.078125 -3.082031 3.078125 -3.375 C 3.078125 -3.6875 2.984375 -3.910156 2.796875 -4.046875 C 2.609375 -4.179688 2.316406 -4.25 1.921875 -4.25 Z "/>
</g>
<g id="glyph-1-2">
<path d="M 3.640625 0 L 3.0625 -1.46875 L 1.171875 -1.46875 L 0.609375 0 L 0 0 L 1.859375 -4.78125 L 2.40625 -4.78125 L 4.25 0 Z M 2.34375 -3.453125 C 2.332031 -3.484375 2.3125 -3.546875 2.28125 -3.640625 C 2.25 -3.734375 2.21875 -3.828125 2.1875 -3.921875 C 2.15625 -4.023438 2.132812 -4.101562 2.125 -4.15625 C 2.09375 -4.019531 2.054688 -3.882812 2.015625 -3.75 C 1.972656 -3.625 1.941406 -3.523438 1.921875 -3.453125 L 1.375 -2.015625 L 2.875 -2.015625 Z "/>
</g>
<g id="glyph-1-3">
<path d="M 2.75 0 L 1.1875 -4.171875 L 1.15625 -4.171875 C 1.164062 -4.035156 1.175781 -3.847656 1.1875 -3.609375 C 1.195312 -3.378906 1.203125 -3.140625 1.203125 -2.890625 L 1.203125 0 L 0.640625 0 L 0.640625 -4.765625 L 1.53125 -4.765625 L 3 -0.859375 L 3.03125 -0.859375 L 4.53125 -4.765625 L 5.40625 -4.765625 L 5.40625 0 L 4.8125 0 L 4.8125 -2.921875 C 4.8125 -3.160156 4.816406 -3.390625 4.828125 -3.609375 C 4.835938 -3.835938 4.847656 -4.023438 4.859375 -4.171875 L 4.828125 -4.171875 L 3.25 0 Z "/>
</g>
<g id="glyph-1-4">
<path d="M 2.375 0 L 1.796875 0 L 1.796875 -3.328125 C 1.796875 -3.515625 1.796875 -3.664062 1.796875 -3.78125 C 1.804688 -3.90625 1.816406 -4.03125 1.828125 -4.15625 C 1.753906 -4.082031 1.6875 -4.019531 1.625 -3.96875 C 1.570312 -3.914062 1.5 -3.851562 1.40625 -3.78125 L 0.90625 -3.375 L 0.59375 -3.765625 L 1.875 -4.765625 L 2.375 -4.765625 Z "/>
</g>
<g id="glyph-1-5">
<path d="M 4.46875 -2.421875 C 4.46875 -1.617188 4.25 -1.015625 3.8125 -0.609375 C 3.375 -0.203125 2.757812 0 1.96875 0 L 0.640625 0 L 0.640625 -4.765625 L 2.109375 -4.765625 C 2.585938 -4.765625 3.003906 -4.675781 3.359375 -4.5 C 3.710938 -4.320312 3.984375 -4.0625 4.171875 -3.71875 C 4.367188 -3.375 4.46875 -2.941406 4.46875 -2.421875 Z M 3.828125 -2.40625 C 3.828125 -3.039062 3.671875 -3.503906 3.359375 -3.796875 C 3.046875 -4.097656 2.601562 -4.25 2.03125 -4.25 L 1.25 -4.25 L 1.25 -0.515625 L 1.890625 -0.515625 C 3.179688 -0.515625 3.828125 -1.144531 3.828125 -2.40625 Z "/>
</g>
<g id="glyph-1-6">
<path d="M 2.71875 -2.515625 L 4.359375 -2.515625 L 4.359375 -0.1875 C 4.097656 -0.09375 3.835938 -0.03125 3.578125 0 C 3.316406 0.0390625 3.019531 0.0625 2.6875 0.0625 C 2.195312 0.0625 1.78125 -0.0351562 1.4375 -0.234375 C 1.101562 -0.429688 0.847656 -0.710938 0.671875 -1.078125 C 0.492188 -1.441406 0.40625 -1.875 0.40625 -2.375 C 0.40625 -2.875 0.503906 -3.304688 0.703125 -3.671875 C 0.898438 -4.035156 1.179688 -4.316406 1.546875 -4.515625 C 1.910156 -4.722656 2.351562 -4.828125 2.875 -4.828125 C 3.144531 -4.828125 3.394531 -4.800781 3.625 -4.75 C 3.863281 -4.707031 4.085938 -4.640625 4.296875 -4.546875 L 4.0625 -4.03125 C 3.894531 -4.101562 3.707031 -4.164062 3.5 -4.21875 C 3.289062 -4.269531 3.070312 -4.296875 2.84375 -4.296875 C 2.269531 -4.296875 1.820312 -4.125 1.5 -3.78125 C 1.1875 -3.445312 1.03125 -2.976562 1.03125 -2.375 C 1.03125 -2 1.09375 -1.664062 1.21875 -1.375 C 1.34375 -1.082031 1.535156 -0.851562 1.796875 -0.6875 C 2.054688 -0.53125 2.398438 -0.453125 2.828125 -0.453125 C 3.035156 -0.453125 3.210938 -0.460938 3.359375 -0.484375 C 3.503906 -0.503906 3.640625 -0.53125 3.765625 -0.5625 L 3.765625 -1.984375 L 2.71875 -1.984375 Z "/>
</g>
<g id="glyph-1-7">
<path d="M 2.234375 -3.640625 C 2.296875 -3.640625 2.363281 -3.632812 2.4375 -3.625 C 2.519531 -3.625 2.59375 -3.617188 2.65625 -3.609375 L 2.578125 -3.0625 C 2.523438 -3.070312 2.460938 -3.082031 2.390625 -3.09375 C 2.316406 -3.101562 2.25 -3.109375 2.1875 -3.109375 C 2.007812 -3.109375 1.835938 -3.054688 1.671875 -2.953125 C 1.515625 -2.859375 1.390625 -2.71875 1.296875 -2.53125 C 1.203125 -2.351562 1.15625 -2.144531 1.15625 -1.90625 L 1.15625 0 L 0.5625 0 L 0.5625 -3.578125 L 1.046875 -3.578125 L 1.109375 -2.921875 L 1.140625 -2.921875 C 1.253906 -3.117188 1.398438 -3.285156 1.578125 -3.421875 C 1.765625 -3.566406 1.984375 -3.640625 2.234375 -3.640625 Z "/>
</g>
<g id="glyph-1-8">
<path d="M 0.875 -4.921875 C 0.957031 -4.921875 1.03125 -4.890625 1.09375 -4.828125 C 1.164062 -4.765625 1.203125 -4.671875 1.203125 -4.546875 C 1.203125 -4.421875 1.164062 -4.328125 1.09375 -4.265625 C 1.03125 -4.203125 0.957031 -4.171875 0.875 -4.171875 C 0.769531 -4.171875 0.679688 -4.203125 0.609375 -4.265625 C 0.546875 -4.328125 0.515625 -4.421875 0.515625 -4.546875 C 0.515625 -4.671875 0.546875 -4.765625 0.609375 -4.828125 C 0.679688 -4.890625 0.769531 -4.921875 0.875 -4.921875 Z M 1.15625 -3.578125 L 1.15625 0 L 0.5625 0 L 0.5625 -3.578125 Z "/>
</g>
<g id="glyph-1-9">
<path d="M 1.828125 0.0625 C 1.390625 0.0625 1.035156 -0.0859375 0.765625 -0.390625 C 0.492188 -0.703125 0.359375 -1.164062 0.359375 -1.78125 C 0.359375 -2.394531 0.492188 -2.859375 0.765625 -3.171875 C 1.035156 -3.484375 1.394531 -3.640625 1.84375 -3.640625 C 2.113281 -3.640625 2.335938 -3.585938 2.515625 -3.484375 C 2.691406 -3.390625 2.835938 -3.265625 2.953125 -3.109375 L 2.984375 -3.109375 C 2.984375 -3.171875 2.976562 -3.257812 2.96875 -3.375 C 2.957031 -3.488281 2.953125 -3.578125 2.953125 -3.640625 L 2.953125 -5.078125 L 3.53125 -5.078125 L 3.53125 0 L 3.0625 0 L 2.96875 -0.484375 L 2.953125 -0.484375 C 2.835938 -0.328125 2.691406 -0.195312 2.515625 -0.09375 C 2.335938 0.0078125 2.109375 0.0625 1.828125 0.0625 Z M 1.921875 -0.421875 C 2.304688 -0.421875 2.570312 -0.523438 2.71875 -0.734375 C 2.875 -0.941406 2.953125 -1.253906 2.953125 -1.671875 L 2.953125 -1.78125 C 2.953125 -2.21875 2.878906 -2.554688 2.734375 -2.796875 C 2.585938 -3.035156 2.316406 -3.15625 1.921875 -3.15625 C 1.609375 -3.15625 1.367188 -3.03125 1.203125 -2.78125 C 1.046875 -2.53125 0.96875 -2.191406 0.96875 -1.765625 C 0.96875 -1.335938 1.046875 -1.003906 1.203125 -0.765625 C 1.367188 -0.535156 1.609375 -0.421875 1.921875 -0.421875 Z "/>
</g>
<g id="glyph-1-10">
<path d="M 3.46875 0 L 0.3125 0 L 0.3125 -0.484375 L 1.5625 -1.75 C 1.800781 -1.988281 2.003906 -2.203125 2.171875 -2.390625 C 2.335938 -2.578125 2.460938 -2.757812 2.546875 -2.9375 C 2.628906 -3.113281 2.671875 -3.3125 2.671875 -3.53125 C 2.671875 -3.789062 2.59375 -3.988281 2.4375 -4.125 C 2.28125 -4.257812 2.078125 -4.328125 1.828125 -4.328125 C 1.597656 -4.328125 1.394531 -4.285156 1.21875 -4.203125 C 1.039062 -4.128906 0.863281 -4.019531 0.6875 -3.875 L 0.375 -4.265625 C 0.5625 -4.421875 0.773438 -4.550781 1.015625 -4.65625 C 1.253906 -4.769531 1.523438 -4.828125 1.828125 -4.828125 C 2.273438 -4.828125 2.628906 -4.710938 2.890625 -4.484375 C 3.148438 -4.265625 3.28125 -3.957031 3.28125 -3.5625 C 3.28125 -3.3125 3.226562 -3.078125 3.125 -2.859375 C 3.019531 -2.640625 2.875 -2.425781 2.6875 -2.21875 C 2.507812 -2.007812 2.300781 -1.785156 2.0625 -1.546875 L 1.0625 -0.5625 L 1.0625 -0.53125 L 3.46875 -0.53125 Z "/>
</g>
<g id="glyph-1-11">
<path d="M 2.21875 -3.125 L 1.3125 -3.125 L 1.3125 0 L 0.734375 0 L 0.734375 -3.125 L 0.09375 -3.125 L 0.09375 -3.390625 L 0.734375 -3.59375 L 0.734375 -3.796875 C 0.734375 -4.265625 0.832031 -4.597656 1.03125 -4.796875 C 1.238281 -5.003906 1.523438 -5.109375 1.890625 -5.109375 C 2.035156 -5.109375 2.164062 -5.09375 2.28125 -5.0625 C 2.394531 -5.039062 2.492188 -5.015625 2.578125 -4.984375 L 2.421875 -4.53125 C 2.359375 -4.550781 2.28125 -4.570312 2.1875 -4.59375 C 2.09375 -4.613281 1.992188 -4.625 1.890625 -4.625 C 1.691406 -4.625 1.546875 -4.554688 1.453125 -4.421875 C 1.359375 -4.296875 1.3125 -4.09375 1.3125 -3.8125 L 1.3125 -3.578125 L 2.21875 -3.578125 Z M 4.515625 -3.125 L 3.609375 -3.125 L 3.609375 0 L 3.03125 0 L 3.03125 -3.125 L 2.390625 -3.125 L 2.390625 -3.390625 L 3.03125 -3.59375 L 3.03125 -3.796875 C 3.03125 -4.265625 3.128906 -4.597656 3.328125 -4.796875 C 3.535156 -5.003906 3.820312 -5.109375 4.1875 -5.109375 C 4.332031 -5.109375 4.460938 -5.09375 4.578125 -5.0625 C 4.691406 -5.039062 4.789062 -5.015625 4.875 -4.984375 L 4.71875 -4.53125 C 4.65625 -4.550781 4.578125 -4.570312 4.484375 -4.59375 C 4.390625 -4.613281 4.289062 -4.625 4.1875 -4.625 C 3.988281 -4.625 3.84375 -4.554688 3.75 -4.421875 C 3.65625 -4.296875 3.609375 -4.09375 3.609375 -3.8125 L 3.609375 -3.578125 L 4.515625 -3.578125 Z M 5.46875 -4.921875 C 5.550781 -4.921875 5.625 -4.890625 5.6875 -4.828125 C 5.757812 -4.765625 5.796875 -4.671875 5.796875 -4.546875 C 5.796875 -4.421875 5.757812 -4.328125 5.6875 -4.265625 C 5.625 -4.203125 5.550781 -4.171875 5.46875 -4.171875 C 5.363281 -4.171875 5.273438 -4.203125 5.203125 -4.265625 C 5.140625 -4.328125 5.109375 -4.421875 5.109375 -4.546875 C 5.109375 -4.671875 5.140625 -4.765625 5.203125 -4.828125 C 5.273438 -4.890625 5.363281 -4.921875 5.46875 -4.921875 Z M 5.75 -3.578125 L 5.75 0 L 5.15625 0 L 5.15625 -3.578125 Z "/>
</g>
<g id="glyph-1-12">
<path d="M 2.28125 -3.640625 C 2.707031 -3.640625 3.03125 -3.535156 3.25 -3.328125 C 3.46875 -3.117188 3.578125 -2.785156 3.578125 -2.328125 L 3.578125 0 L 3 0 L 3 -2.28125 C 3 -2.863281 2.734375 -3.15625 2.203125 -3.15625 C 1.804688 -3.15625 1.53125 -3.039062 1.375 -2.8125 C 1.226562 -2.59375 1.15625 -2.273438 1.15625 -1.859375 L 1.15625 0 L 0.5625 0 L 0.5625 -3.578125 L 1.046875 -3.578125 L 1.125 -3.09375 L 1.15625 -3.09375 C 1.269531 -3.28125 1.429688 -3.414062 1.640625 -3.5 C 1.847656 -3.59375 2.0625 -3.640625 2.28125 -3.640625 Z "/>
</g>
<g id="glyph-1-13">
<path d="M 1.953125 -3.640625 C 2.253906 -3.640625 2.515625 -3.570312 2.734375 -3.4375 C 2.953125 -3.3125 3.117188 -3.125 3.234375 -2.875 C 3.359375 -2.632812 3.421875 -2.351562 3.421875 -2.03125 L 3.421875 -1.671875 L 0.96875 -1.671875 C 0.976562 -1.265625 1.082031 -0.957031 1.28125 -0.75 C 1.476562 -0.539062 1.753906 -0.4375 2.109375 -0.4375 C 2.335938 -0.4375 2.539062 -0.457031 2.71875 -0.5 C 2.894531 -0.539062 3.078125 -0.601562 3.265625 -0.6875 L 3.265625 -0.171875 C 3.078125 -0.0859375 2.894531 -0.03125 2.71875 0 C 2.539062 0.0390625 2.332031 0.0625 2.09375 0.0625 C 1.75 0.0625 1.445312 -0.00390625 1.1875 -0.140625 C 0.925781 -0.273438 0.722656 -0.476562 0.578125 -0.75 C 0.429688 -1.03125 0.359375 -1.367188 0.359375 -1.765625 C 0.359375 -2.148438 0.425781 -2.484375 0.5625 -2.765625 C 0.695312 -3.046875 0.878906 -3.257812 1.109375 -3.40625 C 1.347656 -3.5625 1.628906 -3.640625 1.953125 -3.640625 Z M 1.9375 -3.15625 C 1.65625 -3.15625 1.429688 -3.066406 1.265625 -2.890625 C 1.109375 -2.710938 1.015625 -2.460938 0.984375 -2.140625 L 2.8125 -2.140625 C 2.800781 -2.441406 2.726562 -2.6875 2.59375 -2.875 C 2.457031 -3.0625 2.238281 -3.15625 1.9375 -3.15625 Z "/>
</g>
<g id="glyph-1-14">
<path d="M 2.421875 -4.765625 L 0.640625 0 L 0.0625 0 L 1.84375 -4.765625 Z "/>
</g>
<g id="glyph-1-15">
<path d="M 4.265625 -1.6875 C 4.265625 -1.351562 4.195312 -1.050781 4.0625 -0.78125 C 3.9375 -0.519531 3.734375 -0.3125 3.453125 -0.15625 C 3.179688 -0.0078125 2.835938 0.0625 2.421875 0.0625 C 1.828125 0.0625 1.375 -0.0976562 1.0625 -0.421875 C 0.75 -0.742188 0.59375 -1.164062 0.59375 -1.6875 L 0.59375 -4.765625 L 1.203125 -4.765625 L 1.203125 -1.671875 C 1.203125 -1.285156 1.304688 -0.984375 1.515625 -0.765625 C 1.722656 -0.554688 2.035156 -0.453125 2.453125 -0.453125 C 2.878906 -0.453125 3.1875 -0.566406 3.375 -0.796875 C 3.570312 -1.023438 3.671875 -1.320312 3.671875 -1.6875 L 3.671875 -4.765625 L 4.265625 -4.765625 Z "/>
</g>
<g id="glyph-1-16">
<path d="M 2.15625 0 L 1.546875 0 L 1.546875 -4.234375 L 0.0625 -4.234375 L 0.0625 -4.765625 L 3.640625 -4.765625 L 3.640625 -4.234375 L 2.15625 -4.234375 Z "/>
</g>
<g id="glyph-1-17">
<path d="M 6.125 -4.765625 L 4.84375 0 L 4.25 0 L 3.3125 -3.125 C 3.28125 -3.25 3.242188 -3.375 3.203125 -3.5 C 3.171875 -3.632812 3.144531 -3.75 3.125 -3.84375 C 3.101562 -3.945312 3.085938 -4.019531 3.078125 -4.0625 C 3.066406 -4 3.039062 -3.875 3 -3.6875 C 2.957031 -3.5 2.90625 -3.304688 2.84375 -3.109375 L 1.953125 0 L 1.34375 0 L 0.078125 -4.765625 L 0.703125 -4.765625 L 1.453125 -1.859375 C 1.503906 -1.648438 1.546875 -1.445312 1.578125 -1.25 C 1.617188 -1.0625 1.648438 -0.882812 1.671875 -0.71875 C 1.691406 -0.894531 1.722656 -1.082031 1.765625 -1.28125 C 1.816406 -1.488281 1.867188 -1.691406 1.921875 -1.890625 L 2.765625 -4.765625 L 3.390625 -4.765625 L 4.265625 -1.875 C 4.328125 -1.664062 4.378906 -1.457031 4.421875 -1.25 C 4.460938 -1.050781 4.5 -0.875 4.53125 -0.71875 C 4.550781 -0.882812 4.578125 -1.0625 4.609375 -1.25 C 4.648438 -1.445312 4.695312 -1.648438 4.75 -1.859375 L 5.484375 -4.765625 Z "/>
</g>
<g id="glyph-1-18">
<path d="M 3.34375 -1.28125 C 3.34375 -0.851562 3.1875 -0.519531 2.875 -0.28125 C 2.570312 -0.0507812 2.160156 0.0625 1.640625 0.0625 C 1.378906 0.0625 1.132812 0.0390625 0.90625 0 C 0.675781 -0.03125 0.488281 -0.0820312 0.34375 -0.15625 L 0.34375 -0.734375 C 0.5 -0.660156 0.695312 -0.59375 0.9375 -0.53125 C 1.175781 -0.476562 1.421875 -0.453125 1.671875 -0.453125 C 2.023438 -0.453125 2.289062 -0.519531 2.46875 -0.65625 C 2.65625 -0.800781 2.75 -0.988281 2.75 -1.21875 C 2.75 -1.375 2.710938 -1.503906 2.640625 -1.609375 C 2.578125 -1.722656 2.460938 -1.820312 2.296875 -1.90625 C 2.140625 -2 1.914062 -2.097656 1.625 -2.203125 C 1.21875 -2.347656 0.910156 -2.523438 0.703125 -2.734375 C 0.503906 -2.953125 0.40625 -3.242188 0.40625 -3.609375 C 0.40625 -3.867188 0.46875 -4.085938 0.59375 -4.265625 C 0.71875 -4.441406 0.894531 -4.578125 1.125 -4.671875 C 1.351562 -4.773438 1.617188 -4.828125 1.921875 -4.828125 C 2.179688 -4.828125 2.421875 -4.800781 2.640625 -4.75 C 2.859375 -4.707031 3.054688 -4.644531 3.234375 -4.5625 L 3.046875 -4.046875 C 2.878906 -4.117188 2.695312 -4.175781 2.5 -4.21875 C 2.3125 -4.269531 2.113281 -4.296875 1.90625 -4.296875 C 1.613281 -4.296875 1.390625 -4.234375 1.234375 -4.109375 C 1.078125 -3.984375 1 -3.816406 1 -3.609375 C 1 -3.453125 1.03125 -3.316406 1.09375 -3.203125 C 1.164062 -3.097656 1.273438 -3.003906 1.421875 -2.921875 C 1.578125 -2.835938 1.785156 -2.75 2.046875 -2.65625 C 2.328125 -2.550781 2.5625 -2.4375 2.75 -2.3125 C 2.945312 -2.195312 3.09375 -2.054688 3.1875 -1.890625 C 3.289062 -1.722656 3.34375 -1.519531 3.34375 -1.28125 Z "/>
</g>
<g id="glyph-1-19">
<path d="M 1.90625 -4.828125 C 2.320312 -4.828125 2.660156 -4.726562 2.921875 -4.53125 C 3.191406 -4.34375 3.328125 -4.0625 3.328125 -3.6875 C 3.328125 -3.5 3.285156 -3.332031 3.203125 -3.1875 C 3.117188 -3.039062 3.007812 -2.914062 2.875 -2.8125 C 2.738281 -2.707031 2.585938 -2.609375 2.421875 -2.515625 C 2.617188 -2.421875 2.796875 -2.316406 2.953125 -2.203125 C 3.117188 -2.085938 3.25 -1.953125 3.34375 -1.796875 C 3.4375 -1.640625 3.484375 -1.453125 3.484375 -1.234375 C 3.484375 -0.835938 3.34375 -0.519531 3.0625 -0.28125 C 2.78125 -0.0507812 2.398438 0.0625 1.921875 0.0625 C 1.410156 0.0625 1.015625 -0.046875 0.734375 -0.265625 C 0.460938 -0.492188 0.328125 -0.8125 0.328125 -1.21875 C 0.328125 -1.4375 0.367188 -1.625 0.453125 -1.78125 C 0.546875 -1.9375 0.664062 -2.070312 0.8125 -2.1875 C 0.96875 -2.3125 1.132812 -2.410156 1.3125 -2.484375 C 1.082031 -2.617188 0.882812 -2.78125 0.71875 -2.96875 C 0.5625 -3.15625 0.484375 -3.398438 0.484375 -3.703125 C 0.484375 -3.941406 0.546875 -4.144531 0.671875 -4.3125 C 0.796875 -4.476562 0.960938 -4.601562 1.171875 -4.6875 C 1.390625 -4.78125 1.632812 -4.828125 1.90625 -4.828125 Z M 1.890625 -4.359375 C 1.648438 -4.359375 1.445312 -4.296875 1.28125 -4.171875 C 1.125 -4.054688 1.046875 -3.890625 1.046875 -3.671875 C 1.046875 -3.503906 1.082031 -3.363281 1.15625 -3.25 C 1.238281 -3.144531 1.347656 -3.050781 1.484375 -2.96875 C 1.617188 -2.894531 1.765625 -2.820312 1.921875 -2.75 C 2.160156 -2.84375 2.359375 -2.957031 2.515625 -3.09375 C 2.671875 -3.238281 2.75 -3.429688 2.75 -3.671875 C 2.75 -3.890625 2.671875 -4.054688 2.515625 -4.171875 C 2.359375 -4.296875 2.148438 -4.359375 1.890625 -4.359375 Z M 0.90625 -1.203125 C 0.90625 -0.972656 0.984375 -0.78125 1.140625 -0.625 C 1.304688 -0.476562 1.5625 -0.40625 1.90625 -0.40625 C 2.226562 -0.40625 2.472656 -0.476562 2.640625 -0.625 C 2.816406 -0.78125 2.90625 -0.984375 2.90625 -1.234375 C 2.90625 -1.460938 2.8125 -1.648438 2.625 -1.796875 C 2.445312 -1.953125 2.207031 -2.085938 1.90625 -2.203125 L 1.796875 -2.25 C 1.503906 -2.125 1.28125 -1.976562 1.125 -1.8125 C 0.976562 -1.65625 0.90625 -1.453125 0.90625 -1.203125 Z "/>
</g>
<g id="glyph-1-20">
<path d="M 3.6875 -1.078125 L 2.984375 -1.078125 L 2.984375 0 L 2.421875 0 L 2.421875 -1.078125 L 0.140625 -1.078125 L 0.140625 -1.578125 L 2.375 -4.796875 L 2.984375 -4.796875 L 2.984375 -1.609375 L 3.6875 -1.609375 Z M 2.421875 -3.109375 C 2.421875 -3.335938 2.425781 -3.53125 2.4375 -3.6875 C 2.445312 -3.851562 2.453125 -4.007812 2.453125 -4.15625 L 2.421875 -4.15625 C 2.390625 -4.070312 2.347656 -3.984375 2.296875 -3.890625 C 2.242188 -3.796875 2.191406 -3.710938 2.140625 -3.640625 L 0.71875 -1.609375 L 2.421875 -1.609375 Z "/>
</g>
<g id="glyph-1-21">
<path d="M 2.265625 -3.640625 C 2.703125 -3.640625 3.054688 -3.484375 3.328125 -3.171875 C 3.597656 -2.867188 3.734375 -2.410156 3.734375 -1.796875 C 3.734375 -1.179688 3.597656 -0.71875 3.328125 -0.40625 C 3.054688 -0.09375 2.703125 0.0625 2.265625 0.0625 C 1.984375 0.0625 1.753906 0.0078125 1.578125 -0.09375 C 1.398438 -0.195312 1.257812 -0.316406 1.15625 -0.453125 L 1.109375 -0.453125 C 1.117188 -0.378906 1.128906 -0.285156 1.140625 -0.171875 C 1.148438 -0.0546875 1.15625 0.046875 1.15625 0.140625 L 1.15625 1.59375 L 0.5625 1.59375 L 0.5625 -3.578125 L 1.046875 -3.578125 L 1.125 -3.09375 L 1.15625 -3.09375 C 1.257812 -3.25 1.394531 -3.378906 1.5625 -3.484375 C 1.738281 -3.585938 1.972656 -3.640625 2.265625 -3.640625 Z M 2.15625 -3.15625 C 1.789062 -3.15625 1.535156 -3.050781 1.390625 -2.84375 C 1.242188 -2.632812 1.164062 -2.320312 1.15625 -1.90625 L 1.15625 -1.796875 C 1.15625 -1.359375 1.226562 -1.019531 1.375 -0.78125 C 1.519531 -0.539062 1.785156 -0.421875 2.171875 -0.421875 C 2.390625 -0.421875 2.566406 -0.476562 2.703125 -0.59375 C 2.847656 -0.71875 2.953125 -0.882812 3.015625 -1.09375 C 3.085938 -1.300781 3.125 -1.535156 3.125 -1.796875 C 3.125 -2.210938 3.046875 -2.539062 2.890625 -2.78125 C 2.734375 -3.03125 2.488281 -3.15625 2.15625 -3.15625 Z "/>
</g>
<g id="glyph-1-22">
<path d="M 1.15625 -3.578125 C 1.15625 -3.398438 1.144531 -3.234375 1.125 -3.078125 L 1.15625 -3.078125 C 1.269531 -3.265625 1.425781 -3.40625 1.625 -3.5 C 1.820312 -3.59375 2.039062 -3.640625 2.28125 -3.640625 C 2.707031 -3.640625 3.03125 -3.535156 3.25 -3.328125 C 3.46875 -3.117188 3.578125 -2.785156 3.578125 -2.328125 L 3.578125 0 L 3 0 L 3 -2.28125 C 3 -2.863281 2.734375 -3.15625 2.203125 -3.15625 C 1.796875 -3.15625 1.519531 -3.039062 1.375 -2.8125 C 1.226562 -2.582031 1.15625 -2.257812 1.15625 -1.84375 L 1.15625 0 L 0.5625 0 L 0.5625 -5.078125 L 1.15625 -5.078125 Z "/>
</g>
</g>
</defs>
<g fill="rgb(100%, 100%, 100%)" fill-opacity="1">
<use xlink:href="#glyph-0-0" x="30" y="27.126953"/>
</g>
<g fill="rgb(100%, 100%, 100%)" fill-opacity="1">
<use xlink:href="#glyph-1-0" x="36" y="27.126953"/>
<use xlink:href="#glyph-1-1" x="38" y="27.126953"/>
<use xlink:href="#glyph-1-2" x="42" y="27.126953"/>
<use xlink:href="#glyph-1-3" x="46" y="27.126953"/>
<use xlink:href="#glyph-1-0" x="52" y="27.126953"/>
<use xlink:href="#glyph-1-4" x="54" y="27.126953"/>
<use xlink:href="#glyph-1-5" x="58" y="27.126953"/>
<use xlink:href="#glyph-1-0" x="63" y="27.126953"/>
<use xlink:href="#glyph-1-0" x="65" y="27.126953"/>
</g>
<g fill="rgb(100%, 100%, 100%)" fill-opacity="1">
<use xlink:href="#glyph-0-1" x="67" y="27.126953"/>
<use xlink:href="#glyph-0-2" x="73" y="27.126953"/>
<use xlink:href="#glyph-0-2" x="75" y="27.126953"/>
<use xlink:href="#glyph-0-3" x="77" y="27.126953"/>
</g>
<g fill="rgb(100%, 100%, 100%)" fill-opacity="1">
<use xlink:href="#glyph-1-0" x="83" y="27.126953"/>
<use xlink:href="#glyph-1-6" x="85" y="27.126953"/>
<use xlink:href="#glyph-1-7" x="90" y="27.126953"/>
<use xlink:href="#glyph-1-8" x="93" y="27.126953"/>
<use xlink:href="#glyph-1-9" x="95" y="27.126953"/>
<use xlink:href="#glyph-1-0" x="99" y="27.126953"/>
<use xlink:href="#glyph-1-10" x="101" y="27.126953"/>
<use xlink:href="#glyph-1-5" x="105" y="27.126953"/>
<use xlink:href="#glyph-1-0" x="110" y="27.126953"/>
<use xlink:href="#glyph-1-0" x="112" y="27.126953"/>
</g>
<g fill="rgb(100%, 100%, 100%)" fill-opacity="1">
<use xlink:href="#glyph-0-1" x="114" y="27.126953"/>
<use xlink:href="#glyph-0-2" x="120" y="27.126953"/>
<use xlink:href="#glyph-0-2" x="122" y="27.126953"/>
<use xlink:href="#glyph-0-4" x="124" y="27.126953"/>
</g>
<g fill="rgb(100%, 100%, 100%)" fill-opacity="1">
<use xlink:href="#glyph-1-0" x="130" y="27.126953"/>
<use xlink:href="#glyph-1-2" x="132" y="27.126953"/>
<use xlink:href="#glyph-1-11" x="136" y="27.126953"/>
<use xlink:href="#glyph-1-12" x="142" y="27.126953"/>
<use xlink:href="#glyph-1-13" x="146" y="27.126953"/>
<use xlink:href="#glyph-1-14" x="150" y="27.126953"/>
<use xlink:href="#glyph-1-15" x="152" y="27.126953"/>
<use xlink:href="#glyph-1-16" x="157" y="27.126953"/>
<use xlink:href="#glyph-1-3" x="161" y="27.126953"/>
<use xlink:href="#glyph-1-0" x="167" y="27.126953"/>
<use xlink:href="#glyph-1-0" x="169" y="27.126953"/>
</g>
<g fill="rgb(100%, 100%, 100%)" fill-opacity="1">
<use xlink:href="#glyph-0-1" x="171" y="27.126953"/>
<use xlink:href="#glyph-0-2" x="177" y="27.126953"/>
<use xlink:href="#glyph-0-2" x="179" y="27.126953"/>
<use xlink:href="#glyph-0-5" x="181" y="27.126953"/>
</g>
<g fill="rgb(100%, 100%, 100%)" fill-opacity="1">
<use xlink:href="#glyph-1-0" x="187" y="27.126953"/>
<use xlink:href="#glyph-1-17" x="189" y="27.126953"/>
<use xlink:href="#glyph-1-6" x="195" y="27.126953"/>
<use xlink:href="#glyph-1-18" x="200" y="27.126953"/>
<use xlink:href="#glyph-1-19" x="204" y="27.126953"/>
<use xlink:href="#glyph-1-20" x="208" y="27.126953"/>
<use xlink:href="#glyph-1-0" x="212" y="27.126953"/>
<use xlink:href="#glyph-1-18" x="214" y="27.126953"/>
<use xlink:href="#glyph-1-21" x="218" y="27.126953"/>
<use xlink:href="#glyph-1-22" x="222" y="27.126953"/>
<use xlink:href="#glyph-1-13" x="226" y="27.126953"/>
<use xlink:href="#glyph-1-7" x="230" y="27.126953"/>
<use xlink:href="#glyph-1-13" x="233" y="27.126953"/>
</g>
</svg>
