<?xml version="1.0" encoding="UTF-8"?>
<svg xmlns="http://www.w3.org/2000/svg" xmlns:xlink="http://www.w3.org/1999/xlink" width="1920" height="1080" viewBox="0 0 1920 1080">
<defs>
<g>
<g id="glyph-0-0">
<path d="M 4.0625 -3.765625 L 6.546875 -3.765625 L 6.546875 -0.265625 C 6.148438 -0.140625 5.753906 -0.0507812 5.359375 0 C 4.972656 0.0625 4.53125 0.09375 4.03125 0.09375 C 3.289062 0.09375 2.664062 -0.0507812 2.15625 -0.34375 C 1.65625 -0.644531 1.269531 -1.066406 1 -1.609375 C 0.738281 -2.160156 0.609375 -2.8125 0.609375 -3.5625 C 0.609375 -4.3125 0.753906 -4.957031 1.046875 -5.5 C 1.335938 -6.050781 1.757812 -6.476562 2.3125 -6.78125 C 2.863281 -7.082031 3.53125 -7.234375 4.3125 -7.234375 C 4.707031 -7.234375 5.082031 -7.195312 5.4375 -7.125 C 5.800781 -7.050781 6.132812 -6.945312 6.4375 -6.8125 L 6.09375 -6.046875 C 5.84375 -6.148438 5.554688 -6.242188 5.234375 -6.328125 C 4.921875 -6.410156 4.597656 -6.453125 4.265625 -6.453125 C 3.410156 -6.453125 2.742188 -6.191406 2.265625 -5.671875 C 1.785156 -5.160156 1.546875 -4.457031 1.546875 -3.5625 C 1.546875 -3 1.632812 -2.5 1.8125 -2.0625 C 2 -1.625 2.289062 -1.285156 2.6875 -1.046875 C 3.082031 -0.804688 3.597656 -0.6875 4.234375 -0.6875 C 4.546875 -0.6875 4.8125 -0.703125 5.03125 -0.734375 C 5.257812 -0.765625 5.460938 -0.800781 5.640625 -0.84375 L 5.640625 -2.96875 L 4.0625 -2.96875 Z "/>
</g>
<g id="glyph-0-1">
<path d="M 1.296875 -7.375 C 1.429688 -7.375 1.550781 -7.328125 1.65625 -7.234375 C 1.757812 -7.140625 1.8125 -7 1.8125 -6.8125 C 1.8125 -6.625 1.757812 -6.484375 1.65625 -6.390625 C 1.550781 -6.296875 1.429688 -6.25 1.296875 -6.25 C 1.148438 -6.25 1.023438 -6.296875 0.921875 -6.390625 C 0.828125 -6.484375 0.78125 -6.625 0.78125 -6.8125 C 0.78125 -7 0.828125 -7.140625 0.921875 -7.234375 C 1.023438 -7.328125 1.148438 -7.375 1.296875 -7.375 Z M 1.734375 -5.359375 L 1.734375 0 L 0.84375 0 L 0.84375 -5.359375 Z "/>
</g>
<g id="glyph-0-2">
<path d="M 2.875 -5.453125 C 3.53125 -5.453125 4.015625 -5.304688 4.328125 -5.015625 C 4.640625 -4.734375 4.796875 -4.28125 4.796875 -3.65625 L 4.796875 0 L 4.15625 0 L 3.984375 -0.765625 L 3.953125 -0.765625 C 3.710938 -0.460938 3.460938 -0.242188 3.203125 -0.109375 C 2.953125 0.0234375 2.601562 0.09375 2.15625 0.09375 C 1.664062 0.09375 1.257812 -0.03125 0.9375 -0.28125 C 0.613281 -0.539062 0.453125 -0.941406 0.453125 -1.484375 C 0.453125 -2.023438 0.660156 -2.4375 1.078125 -2.71875 C 1.503906 -3.007812 2.15625 -3.171875 3.03125 -3.203125 L 3.9375 -3.234375 L 3.9375 -3.546875 C 3.9375 -3.992188 3.835938 -4.300781 3.640625 -4.46875 C 3.453125 -4.644531 3.179688 -4.734375 2.828125 -4.734375 C 2.546875 -4.734375 2.28125 -4.691406 2.03125 -4.609375 C 1.78125 -4.523438 1.539062 -4.429688 1.3125 -4.328125 L 1.046875 -4.984375 C 1.285156 -5.117188 1.5625 -5.226562 1.875 -5.3125 C 2.195312 -5.40625 2.53125 -5.453125 2.875 -5.453125 Z M 3.140625 -2.59375 C 2.472656 -2.5625 2.007812 -2.453125 1.75 -2.265625 C 1.5 -2.078125 1.375 -1.816406 1.375 -1.484375 C 1.375 -1.179688 1.460938 -0.957031 1.640625 -0.8125 C 1.828125 -0.675781 2.0625 -0.609375 2.34375 -0.609375 C 2.800781 -0.609375 3.179688 -0.734375 3.484375 -0.984375 C 3.785156 -1.234375 3.9375 -1.617188 3.9375 -2.140625 L 3.9375 -2.625 Z "/>
</g>
<g id="glyph-0-3">
</g>
<g id="glyph-0-4">
<path d="M 2.75 0.09375 C 2.082031 0.09375 1.546875 -0.132812 1.140625 -0.59375 C 0.742188 -1.0625 0.546875 -1.75 0.546875 -2.65625 C 0.546875 -3.582031 0.75 -4.273438 1.15625 -4.734375 C 1.5625 -5.203125 2.09375 -5.4375 2.75 -5.4375 C 3.164062 -5.4375 3.503906 -5.359375 3.765625 -5.203125 C 4.035156 -5.046875 4.253906 -4.859375 4.421875 -4.640625 L 4.484375 -4.640625 C 4.460938 -4.722656 4.445312 -4.847656 4.4375 -5.015625 C 4.425781 -5.191406 4.421875 -5.332031 4.421875 -5.4375 L 4.421875 -6.046875 L 2.296875 -6.046875 L 2.296875 -6.703125 L 4.421875 -6.703125 L 4.421875 -7.59375 L 5.296875 -7.59375 L 5.296875 -6.703125 L 6.0625 -6.703125 L 6.0625 -6.046875 L 5.296875 -6.046875 L 5.296875 0 L 4.578125 0 L 4.453125 -0.71875 L 4.40625 -0.71875 C 4.25 -0.488281 4.035156 -0.296875 3.765625 -0.140625 C 3.503906 0.015625 3.164062 0.09375 2.75 0.09375 Z M 2.90625 -0.625 C 3.457031 -0.625 3.847656 -0.773438 4.078125 -1.078125 C 4.316406 -1.390625 4.4375 -1.859375 4.4375 -2.484375 L 4.4375 -2.65625 C 4.4375 -3.320312 4.320312 -3.828125 4.09375 -4.171875 C 3.875 -4.523438 3.46875 -4.703125 2.875 -4.703125 C 2.40625 -4.703125 2.050781 -4.515625 1.8125 -4.140625 C 1.582031 -3.773438 1.46875 -3.273438 1.46875 -2.640625 C 1.46875 -2.003906 1.582031 -1.507812 1.8125 -1.15625 C 2.050781 -0.800781 2.414062 -0.625 2.90625 -0.625 Z "/>
</g>
<g id="glyph-0-5">
<path d="M 5.515625 -2.6875 C 5.515625 -1.800781 5.285156 -1.113281 4.828125 -0.625 C 4.378906 -0.144531 3.773438 0.09375 3.015625 0.09375 C 2.535156 0.09375 2.109375 -0.0078125 1.734375 -0.21875 C 1.367188 -0.4375 1.078125 -0.753906 0.859375 -1.171875 C 0.648438 -1.585938 0.546875 -2.09375 0.546875 -2.6875 C 0.546875 -3.570312 0.769531 -4.253906 1.21875 -4.734375 C 1.664062 -5.210938 2.273438 -5.453125 3.046875 -5.453125 C 3.523438 -5.453125 3.945312 -5.34375 4.3125 -5.125 C 4.6875 -4.914062 4.976562 -4.601562 5.1875 -4.1875 C 5.40625 -3.78125 5.515625 -3.28125 5.515625 -2.6875 Z M 1.453125 -2.6875 C 1.453125 -2.050781 1.578125 -1.546875 1.828125 -1.171875 C 2.078125 -0.804688 2.476562 -0.625 3.03125 -0.625 C 3.570312 -0.625 3.96875 -0.804688 4.21875 -1.171875 C 4.46875 -1.546875 4.59375 -2.050781 4.59375 -2.6875 C 4.59375 -3.320312 4.46875 -3.816406 4.21875 -4.171875 C 3.96875 -4.535156 3.566406 -4.71875 3.015625 -4.71875 C 2.472656 -4.71875 2.078125 -4.535156 1.828125 -4.171875 C 1.578125 -3.816406 1.453125 -3.320312 1.453125 -2.6875 Z "/>
</g>
<g id="glyph-0-6">
<path d="M 2.875 -5.453125 C 3.53125 -5.453125 4.015625 -5.304688 4.328125 -5.015625 C 4.640625 -4.734375 4.796875 -4.28125 4.796875 -3.65625 L 4.796875 0 L 4.15625 0 L 3.984375 -0.765625 L 3.953125 -0.765625 C 3.710938 -0.460938 3.460938 -0.242188 3.203125 -0.109375 C 2.953125 0.0234375 2.601562 0.09375 2.15625 0.09375 C 1.664062 0.09375 1.257812 -0.03125 0.9375 -0.28125 C 0.613281 -0.539062 0.453125 -0.941406 0.453125 -1.484375 C 0.453125 -2.023438 0.660156 -2.4375 1.078125 -2.71875 C 1.503906 -3.007812 2.15625 -3.171875 3.03125 -3.203125 L 3.9375 -3.234375 L 3.9375 -3.546875 C 3.9375 -3.992188 3.835938 -4.300781 3.640625 -4.46875 C 3.453125 -4.644531 3.179688 -4.734375 2.828125 -4.734375 C 2.546875 -4.734375 2.28125 -4.691406 2.03125 -4.609375 C 1.78125 -4.523438 1.539062 -4.429688 1.3125 -4.328125 L 1.046875 -4.984375 C 1.285156 -5.117188 1.5625 -5.226562 1.875 -5.3125 C 2.195312 -5.40625 2.53125 -5.453125 2.875 -5.453125 Z M 3.140625 -2.59375 C 2.472656 -2.5625 2.007812 -2.453125 1.75 -2.265625 C 1.5 -2.078125 1.375 -1.816406 1.375 -1.484375 C 1.375 -1.179688 1.460938 -0.957031 1.640625 -0.8125 C 1.828125 -0.675781 2.0625 -0.609375 2.34375 -0.609375 C 2.800781 -0.609375 3.179688 -0.734375 3.484375 -0.984375 C 3.785156 -1.234375 3.9375 -1.617188 3.9375 -2.140625 L 3.9375 -2.625 Z M 2.8125 1.765625 C 2.664062 1.765625 2.539062 1.71875 2.4375 1.625 C 2.332031 1.53125 2.28125 1.390625 2.28125 1.203125 C 2.28125 1.003906 2.332031 0.859375 2.4375 0.765625 C 2.539062 0.679688 2.664062 0.640625 2.8125 0.640625 C 2.945312 0.640625 3.066406 0.679688 3.171875 0.765625 C 3.273438 0.859375 3.328125 1.003906 3.328125 1.203125 C 3.328125 1.390625 3.273438 1.53125 3.171875 1.625 C 3.066406 1.71875 2.945312 1.765625 2.8125 1.765625 Z "/>
</g>
<g id="glyph-0-7">
<path d="M 3.4375 -5.453125 C 4.070312 -5.453125 4.550781 -5.296875 4.875 -4.984375 C 5.207031 -4.679688 5.375 -4.179688 5.375 -3.484375 L 5.375 0 L 4.5 0 L 4.5 -3.4375 C 4.5 -4.289062 4.097656 -4.71875 3.296875 -4.71875 C 2.703125 -4.71875 2.289062 -4.550781 2.0625 -4.21875 C 1.84375 -3.882812 1.734375 -3.40625 1.734375 -2.78125 L 1.734375 0 L 0.84375 0 L 0.84375 -5.359375 L 1.5625 -5.359375 L 1.6875 -4.625 L 1.734375 -4.625 C 1.910156 -4.90625 2.148438 -5.113281 2.453125 -5.25 C 2.765625 -5.382812 3.09375 -5.453125 3.4375 -5.453125 Z "/>
</g>
<g id="glyph-0-8">
<path d="M 3.546875 0 L 2.6875 0 L 2.6875 -4.984375 C 2.6875 -5.273438 2.6875 -5.503906 2.6875 -5.671875 C 2.695312 -5.847656 2.710938 -6.03125 2.734375 -6.21875 C 2.617188 -6.113281 2.519531 -6.023438 2.4375 -5.953125 C 2.351562 -5.878906 2.242188 -5.785156 2.109375 -5.671875 L 1.34375 -5.046875 L 0.890625 -5.640625 L 2.8125 -7.140625 L 3.546875 -7.140625 Z "/>
</g>
<g id="glyph-0-9">
<path d="M 0.71875 -4.8125 C 0.71875 -5.070312 0.773438 -5.25 0.890625 -5.34375 C 1.015625 -5.445312 1.160156 -5.5 1.328125 -5.5 C 1.503906 -5.5 1.648438 -5.445312 1.765625 -5.34375 C 1.890625 -5.25 1.953125 -5.070312 1.953125 -4.8125 C 1.953125 -4.570312 1.890625 -4.398438 1.765625 -4.296875 C 1.648438 -4.191406 1.503906 -4.140625 1.328125 -4.140625 C 1.160156 -4.140625 1.015625 -4.191406 0.890625 -4.296875 C 0.773438 -4.398438 0.71875 -4.570312 0.71875 -4.8125 Z M 0.71875 -0.546875 C 0.71875 -0.785156 0.773438 -0.953125 0.890625 -1.046875 C 1.015625 -1.148438 1.160156 -1.203125 1.328125 -1.203125 C 1.503906 -1.203125 1.648438 -1.148438 1.765625 -1.046875 C 1.890625 -0.953125 1.953125 -0.785156 1.953125 -0.546875 C 1.953125 -0.304688 1.890625 -0.128906 1.765625 -0.015625 C 1.648438 0.0859375 1.503906 0.140625 1.328125 0.140625 C 1.160156 0.140625 1.015625 0.0859375 0.890625 -0.015625 C 0.773438 -0.128906 0.71875 -0.304688 0.71875 -0.546875 Z "/>
</g>
<g id="glyph-0-10">
<path d="M 4.125 0 L 1.765625 -6.265625 L 1.734375 -6.265625 C 1.753906 -6.054688 1.769531 -5.773438 1.78125 -5.421875 C 1.789062 -5.078125 1.796875 -4.710938 1.796875 -4.328125 L 1.796875 0 L 0.96875 0 L 0.96875 -7.140625 L 2.296875 -7.140625 L 4.5 -1.296875 L 4.546875 -1.296875 L 6.78125 -7.140625 L 8.09375 -7.140625 L 8.09375 0 L 7.203125 0 L 7.203125 -4.390625 C 7.203125 -4.734375 7.210938 -5.078125 7.234375 -5.421875 C 7.253906 -5.765625 7.269531 -6.039062 7.28125 -6.25 L 7.234375 -6.25 L 4.859375 0 Z "/>
</g>
<g id="glyph-0-11">
<path d="M 3.90625 -7.296875 C 3.90625 -7.046875 3.828125 -6.851562 3.671875 -6.71875 C 3.515625 -6.582031 3.320312 -6.488281 3.09375 -6.4375 L 3.046875 -5.90625 L 2.5 -5.90625 L 2.4375 -6.75 C 2.675781 -6.789062 2.863281 -6.847656 3 -6.921875 C 3.144531 -7.003906 3.21875 -7.117188 3.21875 -7.265625 C 3.21875 -7.429688 3.15625 -7.539062 3.03125 -7.59375 C 2.90625 -7.644531 2.75 -7.671875 2.5625 -7.671875 C 2.476562 -7.671875 2.390625 -7.664062 2.296875 -7.65625 C 2.210938 -7.65625 2.144531 -7.644531 2.09375 -7.625 L 2.09375 -8.15625 C 2.207031 -8.1875 2.390625 -8.203125 2.640625 -8.203125 C 3.035156 -8.203125 3.34375 -8.128906 3.5625 -7.984375 C 3.789062 -7.835938 3.90625 -7.609375 3.90625 -7.296875 Z M 2.875 -5.453125 C 3.53125 -5.453125 4.015625 -5.304688 4.328125 -5.015625 C 4.640625 -4.734375 4.796875 -4.28125 4.796875 -3.65625 L 4.796875 0 L 4.15625 0 L 3.984375 -0.765625 L 3.953125 -0.765625 C 3.710938 -0.460938 3.460938 -0.242188 3.203125 -0.109375 C 2.953125 0.0234375 2.601562 0.09375 2.15625 0.09375 C 1.664062 0.09375 1.257812 -0.03125 0.9375 -0.28125 C 0.613281 -0.539062 0.453125 -0.941406 0.453125 -1.484375 C 0.453125 -2.023438 0.660156 -2.4375 1.078125 -2.71875 C 1.503906 -3.007812 2.15625 -3.171875 3.03125 -3.203125 L 3.9375 -3.234375 L 3.9375 -3.546875 C 3.9375 -3.992188 3.835938 -4.300781 3.640625 -4.46875 C 3.453125 -4.644531 3.179688 -4.734375 2.828125 -4.734375 C 2.546875 -4.734375 2.28125 -4.691406 2.03125 -4.609375 C 1.78125 -4.523438 1.539062 -4.429688 1.3125 -4.328125 L 1.046875 -4.984375 C 1.285156 -5.117188 1.5625 -5.226562 1.875 -5.3125 C 2.195312 -5.40625 2.53125 -5.453125 2.875 -5.453125 Z M 3.140625 -2.59375 C 2.472656 -2.5625 2.007812 -2.453125 1.75 -2.265625 C 1.5 -2.078125 1.375 -1.816406 1.375 -1.484375 C 1.375 -1.179688 1.460938 -0.957031 1.640625 -0.8125 C 1.828125 -0.675781 2.0625 -0.609375 2.34375 -0.609375 C 2.800781 -0.609375 3.179688 -0.734375 3.484375 -0.984375 C 3.785156 -1.234375 3.9375 -1.617188 3.9375 -2.140625 L 3.9375 -2.625 Z "/>
</g>
<g id="glyph-0-12">
<path d="M 2.75 -5.453125 C 3.101562 -5.453125 3.421875 -5.382812 3.703125 -5.25 C 3.984375 -5.125 4.226562 -4.925781 4.4375 -4.65625 L 4.484375 -4.65625 L 4.59375 -5.359375 L 5.296875 -5.359375 L 5.296875 0.09375 C 5.296875 0.851562 5.097656 1.425781 4.703125 1.8125 C 4.316406 2.207031 3.71875 2.40625 2.90625 2.40625 C 2.113281 2.40625 1.46875 2.289062 0.96875 2.0625 L 0.96875 1.25 C 1.5 1.53125 2.160156 1.671875 2.953125 1.671875 C 3.410156 1.671875 3.769531 1.535156 4.03125 1.265625 C 4.300781 0.992188 4.4375 0.625 4.4375 0.15625 L 4.4375 -0.046875 C 4.4375 -0.128906 4.4375 -0.242188 4.4375 -0.390625 C 4.445312 -0.546875 4.453125 -0.648438 4.453125 -0.703125 L 4.421875 -0.703125 C 4.054688 -0.171875 3.503906 0.09375 2.765625 0.09375 C 2.066406 0.09375 1.519531 -0.144531 1.125 -0.625 C 0.738281 -1.113281 0.546875 -1.796875 0.546875 -2.671875 C 0.546875 -3.523438 0.738281 -4.203125 1.125 -4.703125 C 1.519531 -5.203125 2.0625 -5.453125 2.75 -5.453125 Z M 2.875 -4.71875 C 2.425781 -4.71875 2.078125 -4.539062 1.828125 -4.1875 C 1.578125 -3.832031 1.453125 -3.320312 1.453125 -2.65625 C 1.453125 -2 1.570312 -1.492188 1.8125 -1.140625 C 2.0625 -0.796875 2.421875 -0.625 2.890625 -0.625 C 3.429688 -0.625 3.820312 -0.765625 4.0625 -1.046875 C 4.3125 -1.335938 4.4375 -1.804688 4.4375 -2.453125 L 4.4375 -2.671875 C 4.4375 -3.398438 4.3125 -3.921875 4.0625 -4.234375 C 3.8125 -4.554688 3.414062 -4.71875 2.875 -4.71875 Z "/>
</g>
<g id="glyph-0-13">
<path d="M 6.6875 -3.640625 C 6.6875 -2.429688 6.359375 -1.519531 5.703125 -0.90625 C 5.046875 -0.300781 4.128906 0 2.953125 0 L 0.96875 0 L 0.96875 -7.140625 L 3.171875 -7.140625 C 3.890625 -7.140625 4.507812 -7.003906 5.03125 -6.734375 C 5.5625 -6.472656 5.96875 -6.082031 6.25 -5.5625 C 6.539062 -5.050781 6.6875 -4.410156 6.6875 -3.640625 Z M 5.734375 -3.609375 C 5.734375 -4.566406 5.5 -5.265625 5.03125 -5.703125 C 4.5625 -6.148438 3.898438 -6.375 3.046875 -6.375 L 1.875 -6.375 L 1.875 -0.765625 L 2.84375 -0.765625 C 4.769531 -0.765625 5.734375 -1.710938 5.734375 -3.609375 Z "/>
</g>
<g id="glyph-0-14">
<path d="M 2.640625 -0.625 C 2.773438 -0.625 2.910156 -0.632812 3.046875 -0.65625 C 3.191406 -0.675781 3.304688 -0.703125 3.390625 -0.734375 L 3.390625 -0.0625 C 3.296875 -0.0078125 3.160156 0.0234375 2.984375 0.046875 C 2.816406 0.078125 2.648438 0.09375 2.484375 0.09375 C 2.203125 0.09375 1.941406 0.046875 1.703125 -0.046875 C 1.472656 -0.140625 1.285156 -0.304688 1.140625 -0.546875 C 0.992188 -0.785156 0.921875 -1.125 0.921875 -1.5625 L 0.921875 -4.6875 L 0.15625 -4.6875 L 0.15625 -5.09375 L 0.9375 -5.453125 L 1.28125 -6.59375 L 1.796875 -6.59375 L 1.796875 -5.359375 L 3.34375 -5.359375 L 3.34375 -4.6875 L 1.796875 -4.6875 L 1.796875 -1.578125 C 1.796875 -1.253906 1.875 -1.015625 2.03125 -0.859375 C 2.1875 -0.703125 2.390625 -0.625 2.640625 -0.625 Z "/>
</g>
<g id="glyph-0-15">
<path d="M 5.328125 -5.359375 L 5.328125 0 L 4.609375 0 L 4.484375 -0.703125 L 4.4375 -0.703125 C 4.269531 -0.429688 4.03125 -0.226562 3.71875 -0.09375 C 3.414062 0.03125 3.085938 0.09375 2.734375 0.09375 C 2.085938 0.09375 1.601562 -0.0546875 1.28125 -0.359375 C 0.957031 -0.671875 0.796875 -1.164062 0.796875 -1.84375 L 0.796875 -5.359375 L 1.6875 -5.359375 L 1.6875 -1.90625 C 1.6875 -1.050781 2.082031 -0.625 2.875 -0.625 C 3.46875 -0.625 3.878906 -0.789062 4.109375 -1.125 C 4.335938 -1.457031 4.453125 -1.9375 4.453125 -2.5625 L 4.453125 -5.359375 Z "/>
</g>
<g id="glyph-0-16">
<path d="M 1.1875 -7.015625 C 1 -7.148438 0.820312 -7.300781 0.65625 -7.46875 C 0.488281 -7.644531 0.332031 -7.828125 0.1875 -8.015625 L 0.1875 -8.125 L 1.046875 -8.125 C 1.148438 -7.90625 1.25 -7.722656 1.34375 -7.578125 C 1.4375 -7.441406 1.546875 -7.289062 1.671875 -7.125 L 1.671875 -7.015625 Z M 1.28125 -6.171875 C 1.445312 -6.359375 1.625 -6.5625 1.8125 -6.78125 C 2.007812 -7 2.1875 -7.222656 2.34375 -7.453125 L 3.265625 -7.453125 C 3.421875 -7.222656 3.59375 -7 3.78125 -6.78125 C 3.976562 -6.5625 4.160156 -6.359375 4.328125 -6.171875 L 4.328125 -6.0625 L 3.828125 -6.0625 C 3.660156 -6.175781 3.488281 -6.300781 3.3125 -6.4375 C 3.144531 -6.570312 2.972656 -6.71875 2.796875 -6.875 C 2.628906 -6.71875 2.457031 -6.570312 2.28125 -6.4375 C 2.101562 -6.300781 1.929688 -6.175781 1.765625 -6.0625 L 1.28125 -6.0625 Z M 2.875 -5.453125 C 3.53125 -5.453125 4.015625 -5.304688 4.328125 -5.015625 C 4.640625 -4.734375 4.796875 -4.28125 4.796875 -3.65625 L 4.796875 0 L 4.15625 0 L 3.984375 -0.765625 L 3.953125 -0.765625 C 3.710938 -0.460938 3.460938 -0.242188 3.203125 -0.109375 C 2.953125 0.0234375 2.601562 0.09375 2.15625 0.09375 C 1.664062 0.09375 1.257812 -0.03125 0.9375 -0.28125 C 0.613281 -0.539062 0.453125 -0.941406 0.453125 -1.484375 C 0.453125 -2.023438 0.660156 -2.4375 1.078125 -2.71875 C 1.503906 -3.007812 2.15625 -3.171875 3.03125 -3.203125 L 3.9375 -3.234375 L 3.9375 -3.546875 C 3.9375 -3.992188 3.835938 -4.300781 3.640625 -4.46875 C 3.453125 -4.644531 3.179688 -4.734375 2.828125 -4.734375 C 2.546875 -4.734375 2.28125 -4.691406 2.03125 -4.609375 C 1.78125 -4.523438 1.539062 -4.429688 1.3125 -4.328125 L 1.046875 -4.984375 C 1.285156 -5.117188 1.5625 -5.226562 1.875 -5.3125 C 2.195312 -5.40625 2.53125 -5.453125 2.875 -5.453125 Z M 3.140625 -2.59375 C 2.472656 -2.5625 2.007812 -2.453125 1.75 -2.265625 C 1.5 -2.078125 1.375 -1.816406 1.375 -1.484375 C 1.375 -1.179688 1.460938 -0.957031 1.640625 -0.8125 C 1.828125 -0.675781 2.0625 -0.609375 2.34375 -0.609375 C 2.800781 -0.609375 3.179688 -0.734375 3.484375 -0.984375 C 3.785156 -1.234375 3.9375 -1.617188 3.9375 -2.140625 L 3.9375 -2.625 Z "/>
</g>
<g id="glyph-0-17">
<path d="M 7.078125 -6.078125 C 7.023438 -5.765625 6.9375 -5.46875 6.8125 -5.1875 C 6.695312 -4.90625 6.519531 -4.671875 6.28125 -4.484375 C 6.050781 -4.296875 5.734375 -4.179688 5.328125 -4.140625 L 5.328125 0 L 4.609375 0 L 4.484375 -0.703125 L 4.4375 -0.703125 C 4.269531 -0.429688 4.03125 -0.226562 3.71875 -0.09375 C 3.414062 0.03125 3.097656 0.09375 2.765625 0.09375 C 2.109375 0.09375 1.613281 -0.0546875 1.28125 -0.359375 C 0.957031 -0.671875 0.796875 -1.164062 0.796875 -1.84375 L 0.796875 -5.34375 L 1.6875 -5.34375 L 1.6875 -1.90625 C 1.6875 -1.050781 2.082031 -0.625 2.875 -0.625 C 3.46875 -0.625 3.878906 -0.789062 4.109375 -1.125 C 4.335938 -1.457031 4.453125 -1.9375 4.453125 -2.5625 L 4.453125 -5.34375 L 5.328125 -5.34375 L 5.328125 -4.765625 C 5.648438 -4.816406 5.851562 -4.96875 5.9375 -5.21875 C 6.03125 -5.476562 6.078125 -5.800781 6.078125 -6.1875 L 7.015625 -6.1875 Z M 2.921875 1.765625 C 2.773438 1.765625 2.648438 1.71875 2.546875 1.625 C 2.441406 1.53125 2.390625 1.390625 2.390625 1.203125 C 2.390625 1.003906 2.441406 0.859375 2.546875 0.765625 C 2.648438 0.679688 2.773438 0.640625 2.921875 0.640625 C 3.054688 0.640625 3.175781 0.679688 3.28125 0.765625 C 3.382812 0.859375 3.4375 1.003906 3.4375 1.203125 C 3.4375 1.390625 3.382812 1.53125 3.28125 1.625 C 3.175781 1.71875 3.054688 1.765625 2.921875 1.765625 Z "/>
</g>
<g id="glyph-0-18">
<path d="M 3.34375 -5.453125 C 3.445312 -5.453125 3.554688 -5.445312 3.671875 -5.4375 C 3.785156 -5.4375 3.890625 -5.425781 3.984375 -5.40625 L 3.875 -4.59375 C 3.78125 -4.613281 3.679688 -4.628906 3.578125 -4.640625 C 3.484375 -4.648438 3.390625 -4.65625 3.296875 -4.65625 C 3.015625 -4.65625 2.753906 -4.578125 2.515625 -4.421875 C 2.273438 -4.273438 2.082031 -4.066406 1.9375 -3.796875 C 1.800781 -3.535156 1.734375 -3.222656 1.734375 -2.859375 L 1.734375 0 L 0.84375 0 L 0.84375 -5.359375 L 1.5625 -5.359375 L 1.671875 -4.375 L 1.703125 -4.375 C 1.878906 -4.664062 2.101562 -4.914062 2.375 -5.125 C 2.65625 -5.34375 2.976562 -5.453125 3.34375 -5.453125 Z "/>
</g>
<g id="glyph-0-19">
<path d="M 2.921875 -5.453125 C 3.378906 -5.453125 3.769531 -5.351562 4.09375 -5.15625 C 4.425781 -4.957031 4.679688 -4.675781 4.859375 -4.3125 C 5.035156 -3.945312 5.125 -3.523438 5.125 -3.046875 L 5.125 -2.515625 L 1.453125 -2.515625 C 1.472656 -1.898438 1.628906 -1.4375 1.921875 -1.125 C 2.222656 -0.8125 2.640625 -0.65625 3.171875 -0.65625 C 3.515625 -0.65625 3.816406 -0.6875 4.078125 -0.75 C 4.335938 -0.8125 4.609375 -0.898438 4.890625 -1.015625 L 4.890625 -0.25 C 4.617188 -0.125 4.347656 -0.0351562 4.078125 0.015625 C 3.816406 0.0664062 3.5 0.09375 3.125 0.09375 C 2.625 0.09375 2.175781 -0.00390625 1.78125 -0.203125 C 1.394531 -0.410156 1.09375 -0.71875 0.875 -1.125 C 0.65625 -1.539062 0.546875 -2.046875 0.546875 -2.640625 C 0.546875 -3.222656 0.644531 -3.722656 0.84375 -4.140625 C 1.039062 -4.566406 1.316406 -4.890625 1.671875 -5.109375 C 2.023438 -5.335938 2.441406 -5.453125 2.921875 -5.453125 Z M 2.90625 -4.734375 C 2.488281 -4.734375 2.15625 -4.597656 1.90625 -4.328125 C 1.664062 -4.066406 1.523438 -3.691406 1.484375 -3.203125 L 4.203125 -3.203125 C 4.203125 -3.660156 4.097656 -4.03125 3.890625 -4.3125 C 3.679688 -4.59375 3.351562 -4.734375 2.90625 -4.734375 Z M 3.3125 -7.65625 C 3.394531 -7.507812 3.507812 -7.34375 3.65625 -7.15625 C 3.800781 -6.976562 3.957031 -6.800781 4.125 -6.625 C 4.289062 -6.445312 4.4375 -6.296875 4.5625 -6.171875 L 4.5625 -6.0625 L 3.9375 -6.0625 C 3.769531 -6.164062 3.59375 -6.296875 3.40625 -6.453125 C 3.21875 -6.609375 3.03125 -6.773438 2.84375 -6.953125 C 2.664062 -6.773438 2.488281 -6.609375 2.3125 -6.453125 C 2.132812 -6.304688 1.957031 -6.175781 1.78125 -6.0625 L 1.1875 -6.0625 L 1.1875 -6.171875 C 1.3125 -6.304688 1.453125 -6.457031 1.609375 -6.625 C 1.765625 -6.800781 1.914062 -6.976562 2.0625 -7.15625 C 2.207031 -7.34375 2.320312 -7.507812 2.40625 -7.65625 Z "/>
</g>
<g id="glyph-0-20">
<path d="M 2.9375 -7.140625 C 3.820312 -7.140625 4.476562 -6.96875 4.90625 -6.625 C 5.332031 -6.289062 5.546875 -5.785156 5.546875 -5.109375 C 5.546875 -4.734375 5.472656 -4.414062 5.328125 -4.15625 C 5.191406 -3.90625 5.015625 -3.703125 4.796875 -3.546875 C 4.578125 -3.398438 4.347656 -3.285156 4.109375 -3.203125 L 6.0625 0 L 5.015625 0 L 3.296875 -2.953125 L 1.875 -2.953125 L 1.875 0 L 0.96875 0 L 0.96875 -7.140625 Z M 2.890625 -6.359375 L 1.875 -6.359375 L 1.875 -3.703125 L 2.9375 -3.703125 C 3.519531 -3.703125 3.941406 -3.816406 4.203125 -4.046875 C 4.472656 -4.285156 4.609375 -4.625 4.609375 -5.0625 C 4.609375 -5.53125 4.46875 -5.863281 4.1875 -6.0625 C 3.90625 -6.257812 3.472656 -6.359375 2.890625 -6.359375 Z "/>
</g>
<g id="glyph-0-21">
<path d="M 5.453125 0 L 4.59375 -2.203125 L 1.765625 -2.203125 L 0.90625 0 L 0 0 L 2.796875 -7.171875 L 3.59375 -7.171875 L 6.375 0 Z M 3.515625 -5.171875 C 3.492188 -5.222656 3.457031 -5.316406 3.40625 -5.453125 C 3.363281 -5.597656 3.320312 -5.742188 3.28125 -5.890625 C 3.238281 -6.046875 3.207031 -6.160156 3.1875 -6.234375 C 3.132812 -6.035156 3.078125 -5.835938 3.015625 -5.640625 C 2.960938 -5.441406 2.914062 -5.285156 2.875 -5.171875 L 2.0625 -3.015625 L 4.3125 -3.015625 Z "/>
</g>
</g>
</defs>
<g fill="rgb(100%, 100%, 100%)" fill-opacity="1">
<use xlink:href="#glyph-0-0" x="30" y="30.69043"/>
<use xlink:href="#glyph-0-1" x="37" y="30.69043"/>
<use xlink:href="#glyph-0-2" x="40" y="30.69043"/>
<use xlink:href="#glyph-0-1" x="46" y="30.69043"/>
<use xlink:href="#glyph-0-3" x="49" y="30.69043"/>
<use xlink:href="#glyph-0-4" x="52" y="30.69043"/>
<use xlink:href="#glyph-0-5" x="58" y="30.69043"/>
<use xlink:href="#glyph-0-6" x="64" y="30.69043"/>
<use xlink:href="#glyph-0-7" x="70" y="30.69043"/>
<use xlink:href="#glyph-0-3" x="76" y="30.69043"/>
<use xlink:href="#glyph-0-8" x="79" y="30.69043"/>
<use xlink:href="#glyph-0-9" x="85" y="30.69043"/>
<use xlink:href="#glyph-0-3" x="88" y="30.69043"/>
<use xlink:href="#glyph-0-10" x="91" y="30.69043"/>
<use xlink:href="#glyph-0-11" x="100" y="30.69043"/>
<use xlink:href="#glyph-0-7" x="106" y="30.69043"/>
<use xlink:href="#glyph-0-12" x="112" y="30.69043"/>
<use xlink:href="#glyph-0-3" x="118" y="30.69043"/>
<use xlink:href="#glyph-0-8" x="121" y="30.69043"/>
<use xlink:href="#glyph-0-13" x="127" y="30.69043"/>
<use xlink:href="#glyph-0-3" x="134" y="30.69043"/>
<use xlink:href="#glyph-0-14" x="137" y="30.69043"/>
<use xlink:href="#glyph-0-15" x="141" y="30.69043"/>
<use xlink:href="#glyph-0-16" x="147" y="30.69043"/>
<use xlink:href="#glyph-0-7" x="153" y="30.69043"/>
<use xlink:href="#glyph-0-3" x="159" y="30.69043"/>
<use xlink:href="#glyph-0-14" x="162" y="30.69043"/>
<use xlink:href="#glyph-0-17" x="166" y="30.69043"/>
<use xlink:href="#glyph-0-3" x="173" y="30.69043"/>
<use xlink:href="#glyph-0-14" x="176" y="30.69043"/>
<use xlink:href="#glyph-0-18" x="180" y="30.69043"/>
<use xlink:href="#glyph-0-19" x="184" y="30.69043"/>
<use xlink:href="#glyph-0-7" x="190" y="30.69043"/>
<use xlink:href="#glyph-0-3" x="196" y="30.69043"/>
<use xlink:href="#glyph-0-20" x="199" y="30.69043"/>
<use xlink:href="#glyph-0-21" x="205" y="30.69043"/>
<use xlink:href="#glyph-0-10" x="211" y="30.69043"/>
</g>
</svg>
