<?xml version="1.0" encoding="UTF-8"?>
<svg xmlns="http://www.w3.org/2000/svg" xmlns:xlink="http://www.w3.org/1999/xlink" width="1920" height="1080" viewBox="0 0 1920 1080">
<defs>
<g>
<g id="glyph-0-0">
<path d="M 2.890625 0 L 0.265625 0 L 0.265625 -0.40625 L 1.3125 -1.453125 C 1.507812 -1.648438 1.675781 -1.828125 1.8125 -1.984375 C 1.945312 -2.140625 2.050781 -2.289062 2.125 -2.4375 C 2.195312 -2.59375 2.234375 -2.757812 2.234375 -2.9375 C 2.234375 -3.15625 2.164062 -3.320312 2.03125 -3.4375 C 1.90625 -3.550781 1.738281 -3.609375 1.53125 -3.609375 C 1.332031 -3.609375 1.160156 -3.570312 1.015625 -3.5 C 0.867188 -3.4375 0.722656 -3.347656 0.578125 -3.234375 L 0.3125 -3.5625 C 0.46875 -3.6875 0.644531 -3.796875 0.84375 -3.890625 C 1.050781 -3.984375 1.28125 -4.03125 1.53125 -4.03125 C 1.90625 -4.03125 2.195312 -3.9375 2.40625 -3.75 C 2.625 -3.5625 2.734375 -3.300781 2.734375 -2.96875 C 2.734375 -2.757812 2.6875 -2.5625 2.59375 -2.375 C 2.507812 -2.195312 2.390625 -2.019531 2.234375 -1.84375 C 2.085938 -1.664062 1.914062 -1.476562 1.71875 -1.28125 L 0.890625 -0.46875 L 0.890625 -0.4375 L 2.890625 -0.4375 Z "/>
</g>
<g id="glyph-0-1">
<path d="M 2.90625 -1.984375 C 2.90625 -1.566406 2.859375 -1.203125 2.765625 -0.890625 C 2.679688 -0.585938 2.539062 -0.351562 2.34375 -0.1875 C 2.15625 -0.0195312 1.898438 0.0625 1.578125 0.0625 C 1.128906 0.0625 0.796875 -0.117188 0.578125 -0.484375 C 0.367188 -0.847656 0.265625 -1.347656 0.265625 -1.984375 C 0.265625 -2.421875 0.304688 -2.789062 0.390625 -3.09375 C 0.484375 -3.394531 0.625 -3.625 0.8125 -3.78125 C 1.007812 -3.945312 1.265625 -4.03125 1.578125 -4.03125 C 2.023438 -4.03125 2.359375 -3.847656 2.578125 -3.484375 C 2.796875 -3.128906 2.90625 -2.628906 2.90625 -1.984375 Z M 0.765625 -1.984375 C 0.765625 -1.441406 0.828125 -1.035156 0.953125 -0.765625 C 1.078125 -0.492188 1.285156 -0.359375 1.578125 -0.359375 C 1.878906 -0.359375 2.09375 -0.492188 2.21875 -0.765625 C 2.351562 -1.035156 2.421875 -1.441406 2.421875 -1.984375 C 2.421875 -2.523438 2.351562 -2.929688 2.21875 -3.203125 C 2.09375 -3.472656 1.878906 -3.609375 1.578125 -3.609375 C 1.285156 -3.609375 1.078125 -3.472656 0.953125 -3.203125 C 0.828125 -2.929688 0.765625 -2.523438 0.765625 -1.984375 Z "/>
</g>
<g id="glyph-0-2">
</g>
<g id="glyph-0-3">
<path d="M 3.75 -3.03125 C 4.082031 -3.03125 4.332031 -2.941406 4.5 -2.765625 C 4.664062 -2.597656 4.75 -2.320312 4.75 -1.9375 L 4.75 0 L 4.265625 0 L 4.265625 -1.921875 C 4.265625 -2.390625 4.0625 -2.625 3.65625 -2.625 C 3.363281 -2.625 3.15625 -2.539062 3.03125 -2.375 C 2.914062 -2.207031 2.859375 -1.960938 2.859375 -1.640625 L 2.859375 0 L 2.375 0 L 2.375 -1.921875 C 2.375 -2.390625 2.164062 -2.625 1.75 -2.625 C 1.457031 -2.625 1.253906 -2.53125 1.140625 -2.34375 C 1.023438 -2.15625 0.96875 -1.890625 0.96875 -1.546875 L 0.96875 0 L 0.46875 0 L 0.46875 -2.984375 L 0.875 -2.984375 L 0.9375 -2.578125 L 0.96875 -2.578125 C 1.0625 -2.734375 1.1875 -2.847656 1.34375 -2.921875 C 1.5 -2.992188 1.664062 -3.03125 1.84375 -3.03125 C 2.3125 -3.03125 2.617188 -2.863281 2.765625 -2.53125 L 2.78125 -2.53125 C 2.882812 -2.707031 3.019531 -2.832031 3.1875 -2.90625 C 3.363281 -2.988281 3.550781 -3.03125 3.75 -3.03125 Z "/>
</g>
<g id="glyph-0-4">
<path d="M 2.015625 -3.96875 L 0.53125 0 L 0.0625 0 L 1.53125 -3.96875 Z "/>
</g>
<g id="glyph-0-5">
<path d="M 1.890625 -3.03125 C 2.253906 -3.03125 2.546875 -2.898438 2.765625 -2.640625 C 2.992188 -2.390625 3.109375 -2.007812 3.109375 -1.5 C 3.109375 -0.988281 2.992188 -0.597656 2.765625 -0.328125 C 2.546875 -0.0664062 2.253906 0.0625 1.890625 0.0625 C 1.660156 0.0625 1.46875 0.0195312 1.3125 -0.0625 C 1.164062 -0.15625 1.050781 -0.257812 0.96875 -0.375 L 0.921875 -0.375 C 0.929688 -0.3125 0.941406 -0.234375 0.953125 -0.140625 C 0.960938 -0.046875 0.96875 0.0351562 0.96875 0.109375 L 0.96875 1.328125 L 0.46875 1.328125 L 0.46875 -2.984375 L 0.875 -2.984375 L 0.9375 -2.578125 L 0.96875 -2.578125 C 1.050781 -2.703125 1.164062 -2.804688 1.3125 -2.890625 C 1.457031 -2.984375 1.648438 -3.03125 1.890625 -3.03125 Z M 1.796875 -2.625 C 1.492188 -2.625 1.28125 -2.535156 1.15625 -2.359375 C 1.03125 -2.191406 0.96875 -1.9375 0.96875 -1.59375 L 0.96875 -1.5 C 0.96875 -1.132812 1.023438 -0.847656 1.140625 -0.640625 C 1.265625 -0.441406 1.488281 -0.34375 1.8125 -0.34375 C 2 -0.34375 2.148438 -0.394531 2.265625 -0.5 C 2.378906 -0.601562 2.460938 -0.738281 2.515625 -0.90625 C 2.578125 -1.082031 2.609375 -1.28125 2.609375 -1.5 C 2.609375 -1.84375 2.539062 -2.113281 2.40625 -2.3125 C 2.28125 -2.519531 2.078125 -2.625 1.796875 -2.625 Z "/>
</g>
<g id="glyph-0-6">
<path d="M 1.171875 -1.53125 L 0.15625 -2.984375 L 0.703125 -2.984375 L 1.46875 -1.859375 L 2.234375 -2.984375 L 2.78125 -2.984375 L 1.75 -1.53125 L 2.84375 0 L 2.28125 0 L 1.46875 -1.1875 L 0.65625 0 L 0.09375 0 Z "/>
</g>
</g>
</defs>
<g fill="rgb(96.862745%, 78.039216%, 59.215686%)" fill-opacity="1">
<use xlink:href="#glyph-0-0" x="30" y="25.939453"/>
<use xlink:href="#glyph-0-1" x="33" y="25.939453"/>
<use xlink:href="#glyph-0-2" x="36" y="25.939453"/>
<use xlink:href="#glyph-0-3" x="37" y="25.939453"/>
<use xlink:href="#glyph-0-4" x="42" y="25.939453"/>
<use xlink:href="#glyph-0-5" x="44" y="25.939453"/>
<use xlink:href="#glyph-0-6" x="47" y="25.939453"/>
</g>
</svg>
