<?xml version="1.0" encoding="UTF-8"?>
<svg xmlns="http://www.w3.org/2000/svg" xmlns:xlink="http://www.w3.org/1999/xlink" width="1920" height="1080" viewBox="0 0 1920 1080">
<defs>
<g>
<g id="glyph-0-0">
<path d="M 1.40625 0.046875 C 1.125 0.046875 0.894531 -0.0234375 0.71875 -0.171875 C 0.550781 -0.328125 0.425781 -0.539062 0.34375 -0.8125 C 0.257812 -1.09375 0.21875 -1.421875 0.21875 -1.796875 C 0.21875 -2.160156 0.257812 -2.476562 0.34375 -2.75 C 0.425781 -3.03125 0.550781 -3.242188 0.71875 -3.390625 C 0.894531 -3.546875 1.125 -3.625 1.40625 -3.625 C 1.664062 -3.625 1.878906 -3.546875 2.046875 -3.390625 C 2.222656 -3.242188 2.351562 -3.03125 2.4375 -2.75 C 2.519531 -2.476562 2.5625 -2.160156 2.5625 -1.796875 C 2.5625 -1.421875 2.519531 -1.09375 2.4375 -0.8125 C 2.351562 -0.539062 2.222656 -0.328125 2.046875 -0.171875 C 1.878906 -0.0234375 1.664062 0.046875 1.40625 0.046875 Z M 1.40625 -0.21875 C 1.644531 -0.21875 1.8125 -0.351562 1.90625 -0.625 C 2 -0.90625 2.046875 -1.296875 2.046875 -1.796875 C 2.046875 -2.285156 2 -2.664062 1.90625 -2.9375 C 1.8125 -3.207031 1.644531 -3.34375 1.40625 -3.34375 C 1.164062 -3.34375 0.992188 -3.207031 0.890625 -2.9375 C 0.796875 -2.664062 0.75 -2.285156 0.75 -1.796875 C 0.75 -1.296875 0.796875 -0.90625 0.890625 -0.625 C 0.984375 -0.351562 1.15625 -0.21875 1.40625 -0.21875 Z "/>
</g>
</g>
</defs>
<g fill="rgb(100%, 100%, 100%)" fill-opacity="1">
<use xlink:href="#glyph-0-0" x="30" y="25.344727"/>
</g>
</svg>
